<svg width="393" height="485" viewBox="0 0 393 485" fill="none" xmlns="http://www.w3.org/2000/svg">
<g filter="url(#filter0_d_15_4632)">
<g clip-path="url(#clip0_15_4632)">
<rect x="83.2499" y="120.846" width="242.5" height="242.5" rx="121.25" fill="url(#paint0_linear_15_4632)"/>
<g filter="url(#filter1_d_15_4632)">
<path fill-rule="evenodd" clip-rule="evenodd" d="M48.737 161.24L59.2325 151.822C63.8578 147.672 61.161 140.001 54.9561 139.658C52.4804 139.522 50.1179 140.708 48.7499 142.776L47.2626 145.025C46.466 146.229 46.1803 147.7 46.4685 149.115L46.6512 150.012C47.0253 151.848 46.144 153.711 44.4872 154.587L44.2036 154.737C41.775 156.02 41.3374 159.316 43.3466 161.189C44.8592 162.599 47.198 162.621 48.737 161.24ZM42.6806 148.365L41.6538 146.003C40.9094 144.291 38.7749 143.702 37.2576 144.79C36.4855 145.344 36.0299 146.238 36.0352 147.188L36.0496 149.764C36.0599 151.602 37.5064 153.111 39.3427 153.199C41.9025 153.322 43.7023 150.716 42.6806 148.365ZM27.2174 154.577L28.7264 152.489C29.8203 150.976 29.2391 148.839 27.5294 148.089C26.6593 147.707 25.6581 147.77 24.8433 148.259L22.6347 149.584C21.0582 150.53 20.4971 152.544 21.3573 154.169C22.5564 156.434 25.7161 156.654 27.2174 154.577ZM101.051 262.407V261.717C101.051 256.272 103.621 251.146 107.984 247.888L109.759 246.563C114.874 242.745 121.412 241.375 127.63 242.819L129.199 243.184L143.873 246.578C144.35 246.689 144.843 246.708 145.328 246.636L148.142 246.215C150.529 245.859 151.298 242.798 149.363 241.355C148.676 240.843 148.271 240.036 148.271 239.179V238.992C148.271 237.547 149.273 236.295 150.682 235.978L154.285 235.169C156.494 234.672 157.734 232.317 156.894 230.215C156.335 228.819 154.983 227.903 153.479 227.903H151.871C149.652 227.903 147.612 229.117 146.552 231.066L145.604 232.811C145.468 233.062 145.313 233.303 145.141 233.532C142.631 236.879 137.529 236.616 135.376 233.029L135.008 232.415C133.437 229.796 130.228 228.66 127.359 229.708L118.925 232.787C118.196 233.053 117.509 233.424 116.886 233.887L111.844 237.639C109.927 239.066 107.174 238.194 106.429 235.923C105.908 234.334 106.583 232.598 108.041 231.78L109.587 230.912C111.127 230.047 112.081 228.419 112.081 226.652C112.081 225.124 112.796 223.684 114.013 222.761L121.176 217.327C121.768 216.878 122.245 216.296 122.57 215.628C123.5 213.716 125.591 212.66 127.682 213.046L131.129 213.682C134.016 214.214 136.914 212.814 138.291 210.222L138.995 208.896C139.554 207.844 139.581 206.589 139.066 205.514C137.759 202.786 133.928 202.645 132.424 205.27L131.162 207.473C130.173 209.2 127.814 209.514 126.407 208.107L126.237 207.937C125.78 207.48 125.16 207.223 124.513 207.223C123.167 207.223 122.076 206.132 122.076 204.786V201.053C122.076 199.761 122.482 198.501 123.236 197.452L129.332 188.974C132.594 184.436 138.256 182.291 143.706 183.528L149.375 184.815C150.337 185.033 151.128 185.715 151.485 186.634L151.524 186.734C152.081 188.166 151.406 189.783 149.995 190.393L149.233 190.722C148.649 190.975 148.271 191.55 148.271 192.186C148.271 193.067 148.985 193.781 149.866 193.781H151.734C153.392 193.781 154.818 192.605 155.133 190.976L155.396 189.62C155.749 187.791 157.066 186.297 158.836 185.716L168.175 182.648C170.355 181.932 171.973 180.087 172.398 177.832C172.882 175.26 174.906 173.257 177.482 172.798L178.462 172.623C180.466 172.267 182.249 171.135 183.424 169.473L192.831 156.17C194.935 153.195 198.602 151.749 202.171 152.487L202.941 152.646C205.068 153.086 206.897 154.432 207.949 156.332C209.711 159.512 213.513 160.956 216.942 159.748L219.705 158.774C221.83 158.025 224.18 158.278 226.098 159.46C228.469 160.923 231.459 160.941 233.848 159.507L237.264 157.458C239.973 155.832 243.152 155.171 246.285 155.58L256.323 156.892C259.818 157.348 263.37 156.823 266.582 155.373C269.538 154.04 272.786 153.486 276.016 153.765L287.261 154.737C288.765 154.867 290.075 155.811 290.674 157.196C291.215 158.448 291.099 159.887 290.364 161.036L289.519 162.356C288.463 164.006 288.142 166.021 288.631 167.918L289.073 169.631C289.487 171.234 289.537 172.91 289.22 174.535L288.344 179.027C288.045 180.556 286.975 181.821 285.516 182.368C283.641 183.071 282.46 184.932 282.62 186.927L283.836 202.045C283.905 202.893 283.31 203.65 282.47 203.785C281.674 203.912 280.904 203.438 280.66 202.669L278.072 194.527C276.66 190.086 272.068 187.48 267.531 188.544C265.453 189.032 263.619 190.248 262.362 191.972L261.341 193.371C258.737 196.942 258.031 201.556 259.449 205.742L262.444 214.579C263.596 217.98 262.809 221.738 260.39 224.391L258.653 226.296C257.727 227.312 257.314 228.694 257.531 230.051L257.71 231.166C258.123 233.75 255.82 235.948 253.258 235.414C250.588 234.858 248.24 237.258 248.856 239.916L250.638 247.605C251.409 250.935 250.179 254.409 247.484 256.512L244.3 258.996C242.5 260.401 241.448 262.556 241.448 264.84V268.927C241.448 270.763 239.959 272.251 238.123 272.251H235.783C234.808 272.251 234.094 273.167 234.33 274.112C234.728 275.702 232.647 276.683 231.673 275.364L223.25 263.96C222.064 262.355 219.931 261.775 218.096 262.558L215.288 263.755C213.556 264.495 212.133 265.81 211.259 267.478L207.135 275.351C206.743 276.099 205.706 276.183 205.199 275.508L195.908 263.145C192.963 259.225 188.759 256.437 184.002 255.247L178.715 253.518C176.772 252.882 175.233 255.22 176.586 256.754C176.779 256.972 177.017 257.146 177.284 257.264L177.459 257.34C179.383 258.185 179.777 260.742 178.197 262.128L175.715 264.304C174.196 265.636 172.021 265.916 170.214 265.012L168.074 263.942C164.564 262.187 160.692 265.572 161.962 269.285C162.569 271.059 164.237 272.251 166.112 272.251H166.232C169.518 272.251 171.723 275.625 170.403 278.634L165.053 290.832C164.742 291.541 164.494 292.276 164.311 293.028L161.859 303.124C161.082 306.325 159.625 309.322 157.587 311.911L147.823 324.319C146.292 326.264 143.954 327.399 141.48 327.399C139.286 327.399 137.186 326.506 135.665 324.925L133.503 322.679C130.742 319.81 129.199 315.983 129.199 312.001V300.285L127.983 290.404C127.583 287.15 125.99 284.16 123.512 282.013C121.527 280.293 119.076 279.202 116.47 278.878L115.495 278.757C107.245 277.731 101.051 270.72 101.051 262.407ZM36.7627 166.77L35.0029 169.208C33.2505 171.635 29.5582 171.378 28.1588 168.731C27.1566 166.836 27.8109 164.487 29.649 163.383L32.2262 161.834C33.1783 161.262 34.3487 161.188 35.3655 161.635C37.3596 162.512 38.0377 165.004 36.7627 166.77ZM41.4204 170.656L39.6453 171.905C38.8869 172.438 38.4357 173.308 38.4357 174.235C38.4357 175.241 38.9663 176.173 39.8317 176.686L44.2128 179.284C46.7566 180.792 48.3163 183.531 48.3163 186.488V186.974C48.3163 188.267 48.6893 189.534 49.3905 190.62L50.3992 192.184C51.8009 194.357 54.6717 195.028 56.892 193.703C58.7483 192.596 59.635 190.384 59.0577 188.3L56.1056 177.647C55.2485 174.554 53.0369 172.016 50.0905 170.744L48.2539 169.951C46.0085 168.981 43.4205 169.248 41.4204 170.656ZM81.6224 144.743L64.27 154.921C62.7854 155.791 61.8733 157.384 61.8733 159.105C61.8733 160.346 62.3487 161.539 63.2017 162.44L66.2312 165.64C69.8959 169.51 71.3794 174.959 70.1828 180.153L67.639 191.195C67.2632 192.827 67.6619 194.54 68.7193 195.838C70.5929 198.137 73.9665 198.504 76.2909 196.661L87.8436 187.503C91.9685 184.233 94.6669 179.493 95.3728 174.277L95.9114 170.298C96.1961 168.193 96.7712 166.139 97.62 164.193L99.777 159.247C100.611 157.336 100.908 155.234 100.636 153.167C99.9923 148.263 96.2781 144.324 91.4205 143.393L90.4938 143.215C87.4492 142.631 84.2964 143.174 81.6224 144.743ZM-48.8219 190.965C-50.4108 182.443 -49.0081 164.826 -31.9544 157.314C-31.6003 157.158 -31.2462 156.994 -30.8908 156.829C-30.8908 156.829 -30.8908 156.829 -30.8908 156.829C-30.8908 156.828 -30.8908 156.828 -30.8908 156.828C-29.3969 156.134 -27.8816 155.43 -26.2592 155.313C-22.8997 155.07 -17.6716 156.893 -11.6808 164.506C-11.4631 164.783 -11.2566 165.05 -11.057 165.309L-11.0569 165.309C-9.62427 167.164 -8.5468 168.56 -6.24358 169.598C-1.86409 171.573 1.06304 167.636 4.0038 163.68C6.93637 159.735 9.88249 155.772 14.2959 157.635C15.5303 158.157 17.0545 159.191 18.9222 160.875C20.8778 162.637 22.2866 164.93 23.2807 167.368L25.3873 172.534C26.1648 174.441 27.6695 175.96 29.569 176.756C34.6034 178.864 35.9382 185.378 32.139 189.297L27.3351 194.252C24.2884 197.394 24.4309 202.43 27.6503 205.395L29.4902 207.09C32.2406 209.623 36.634 208.931 38.4722 205.675C40.5502 201.994 45.7409 201.699 48.2214 205.122L52.2253 210.647C55.3385 214.943 54.6306 220.909 50.5985 224.357L27.0658 244.48C25.8965 245.48 25.2232 246.942 25.2232 248.481C25.2232 252.211 21.4491 254.758 17.9896 253.361L15.5639 252.382C11.3371 250.675 6.72578 253.786 6.72578 258.345C6.72578 260.563 7.86921 262.625 9.75103 263.8L20.6681 270.615C24.4473 272.974 29.0465 273.63 33.3344 272.42C37.609 271.215 42.1937 271.862 45.9671 274.205L67.8249 287.774C73.2265 291.127 74.8777 298.23 71.5093 303.622L50.8047 336.766C49.6872 338.555 48.8214 340.489 48.2315 342.515L46.6178 348.055C46.0022 350.169 46.024 352.417 46.6807 354.518L48.6232 360.734C48.9194 361.682 48.5681 362.712 47.7547 363.282C46.6437 364.059 45.1034 363.701 44.4501 362.512L36.8962 348.771C35.5696 346.357 34.874 343.648 34.874 340.894V316.911C34.874 311.947 32.821 307.204 29.2018 303.807L27.019 301.758C23.7669 298.706 22.3564 294.17 23.3038 289.812C24.4527 284.527 22.1256 279.096 17.5074 276.282L2.30319 267.018C1.13095 266.303 0.136994 265.331 -0.603133 264.175L-11.4725 247.198C-12.1403 246.154 -13.7434 246.488 -13.9391 247.711C-14.1587 249.084 -16.0604 249.266 -16.5368 247.96L-20.9944 235.741C-21.275 234.971 -21.351 234.143 -21.2151 233.335L-18.8347 219.197C-18.0513 214.544 -18.7193 209.763 -20.7479 205.503L-26.8099 192.773C-28.2212 189.809 -31.2111 187.921 -34.4937 187.921H-34.7789C-36.4022 187.921 -37.9834 188.439 -39.2929 189.398L-43.9916 192.84C-45.6021 194.02 -47.8924 193.376 -48.6525 191.53C-48.7283 191.346 -48.7855 191.161 -48.8219 190.965ZM245.116 282.082L244.338 282.999C242.779 284.835 242.922 287.567 244.662 289.23L245.417 289.951C246.226 290.724 247.397 290.987 248.459 290.633C249.692 290.222 250.524 289.067 250.524 287.767V284.068C250.524 282.945 249.911 281.912 248.925 281.374C247.648 280.678 246.058 280.974 245.116 282.082ZM244.32 320.018V322.602C244.32 327.535 248.32 331.535 253.253 331.535C254.261 331.535 255.261 331.364 256.211 331.031L257.658 330.523C260.02 329.695 262.603 329.759 264.921 330.705C266.261 331.252 267.469 332.077 268.468 333.125L272.575 337.437C273.411 338.315 274.444 338.981 275.589 339.38C278.994 340.567 282.764 339.208 284.63 336.123L286.225 333.485C287.003 332.198 287.52 330.769 287.745 329.282L288.716 322.876C288.983 321.116 288.656 319.317 287.787 317.763L281.156 305.901C280.256 304.291 277.868 304.529 277.304 306.286C277.024 307.16 276.212 307.752 275.295 307.752H274.728C273.567 307.752 272.52 307.057 272.068 305.988L271.675 305.056C270.636 302.593 267.663 301.613 265.363 302.976L258.678 306.937C257.766 307.478 256.781 307.886 255.754 308.15L252.974 308.863C247.881 310.17 244.32 314.761 244.32 320.018ZM229.383 285.892L232.958 291.521C233.38 292.185 234.112 292.587 234.898 292.587C236.168 292.587 237.197 291.558 237.197 290.288V290.083C237.197 289.475 236.976 288.888 236.575 288.432L232.379 283.648C231.83 283.022 230.933 282.832 230.177 283.183C229.149 283.661 228.775 284.935 229.383 285.892ZM165.33 310.695L168.971 305.11C169.591 304.16 170.905 303.972 171.766 304.71C172.398 305.253 172.598 306.147 172.255 306.907L169.64 312.707C169.391 313.261 168.948 313.706 168.395 313.957L168.208 314.043C167.053 314.569 165.69 314.058 165.164 312.903C164.838 312.187 164.9 311.354 165.33 310.695ZM276.184 295.397L276.649 295.825C277.359 296.476 278.288 296.838 279.252 296.838H281.461C282.424 296.838 283.375 297.051 284.246 297.463L287.751 299.12C288.611 299.527 289.639 299.251 290.181 298.469C290.801 297.573 290.565 296.343 289.657 295.741L280.612 289.741C280.021 289.349 279.328 289.14 278.62 289.14C275.335 289.14 273.764 293.176 276.184 295.397ZM302.681 352.041L297.385 356.523C296.78 357.035 296.582 357.883 296.898 358.61C297.252 359.425 298.149 359.858 299.008 359.629L300.648 359.192C301.913 358.855 302.913 357.884 303.288 356.63L304.335 353.124C304.628 352.141 303.464 351.379 302.681 352.041ZM307.073 346.2L309.089 339.562C309.387 338.581 310.779 338.589 311.066 339.573L312.089 343.086C312.455 344.344 312.142 345.701 311.262 346.671L310.122 347.929C309.525 348.587 308.536 348.71 307.797 348.217C307.136 347.778 306.842 346.958 307.073 346.2Z" fill="#A7CF75"/>
</g>
<g filter="url(#filter2_d_15_4632)">
<path fill-rule="evenodd" clip-rule="evenodd" d="M412.487 161.24L422.982 151.822C427.608 147.672 424.911 140.001 418.706 139.658C416.23 139.522 413.868 140.708 412.5 142.776L411.012 145.025C410.216 146.229 409.93 147.7 410.218 149.115L410.401 150.012C410.775 151.848 409.894 153.711 408.237 154.587L407.953 154.737C405.525 156.02 405.087 159.316 407.097 161.189C408.609 162.599 410.948 162.621 412.487 161.24ZM406.431 148.365L405.404 146.003C404.659 144.291 402.525 143.702 401.008 144.79C400.235 145.344 399.78 146.238 399.785 147.188L399.8 149.764C399.81 151.602 401.256 153.111 403.093 153.199C405.652 153.322 407.452 150.716 406.431 148.365ZM390.967 154.577L392.476 152.489C393.57 150.976 392.989 148.839 391.279 148.089C390.409 147.707 389.408 147.77 388.593 148.259L386.385 149.584C384.808 150.53 384.247 152.544 385.107 154.169C386.306 156.434 389.466 156.654 390.967 154.577ZM464.801 262.407V261.717C464.801 256.272 467.371 251.146 471.734 247.888L473.509 246.563C478.624 242.745 485.162 241.375 491.38 242.819L492.949 243.184L507.623 246.578C508.1 246.689 508.593 246.708 509.078 246.636L511.892 246.215C514.279 245.859 515.048 242.798 513.113 241.355C512.426 240.843 512.021 240.036 512.021 239.179V238.992C512.021 237.547 513.023 236.295 514.432 235.978L518.035 235.169C520.244 234.672 521.484 232.317 520.644 230.215C520.085 228.819 518.733 227.903 517.229 227.903H515.621C513.402 227.903 511.362 229.117 510.302 231.066L509.354 232.811C509.218 233.062 509.063 233.303 508.891 233.532C506.381 236.879 501.279 236.616 499.126 233.029L498.758 232.415C497.187 229.796 493.978 228.66 491.109 229.708L482.675 232.787C481.946 233.053 481.259 233.424 480.636 233.887L475.594 237.639C473.676 239.066 470.924 238.194 470.179 235.923C469.658 234.334 470.333 232.598 471.791 231.78L473.337 230.912C474.877 230.047 475.831 228.419 475.831 226.652C475.831 225.124 476.546 223.684 477.763 222.761L484.926 217.327C485.518 216.878 485.995 216.296 486.32 215.628C487.25 213.716 489.341 212.66 491.432 213.046L494.879 213.682C497.766 214.214 500.664 212.814 502.041 210.222L502.745 208.896C503.304 207.844 503.33 206.589 502.816 205.514C501.509 202.786 497.678 202.645 496.174 205.27L494.912 207.473C493.923 209.2 491.564 209.514 490.157 208.107L489.987 207.937C489.53 207.48 488.91 207.223 488.263 207.223C486.917 207.223 485.826 206.132 485.826 204.786V201.053C485.826 199.761 486.232 198.501 486.986 197.452L493.082 188.974C496.344 184.436 502.006 182.291 507.456 183.528L513.125 184.815C514.087 185.033 514.878 185.715 515.235 186.634L515.274 186.734C515.831 188.166 515.156 189.783 513.745 190.393L512.983 190.722C512.399 190.975 512.021 191.55 512.021 192.186C512.021 193.067 512.735 193.781 513.616 193.781H515.484C517.142 193.781 518.568 192.605 518.883 190.976L519.145 189.62C519.499 187.791 520.816 186.297 522.586 185.716L531.925 182.648C534.105 181.932 535.723 180.087 536.148 177.832C536.632 175.26 538.656 173.257 541.232 172.798L542.212 172.623C544.216 172.267 545.999 171.135 547.174 169.473L556.581 156.17C558.685 153.195 562.352 151.749 565.921 152.487L566.691 152.646C568.818 153.086 570.646 154.432 571.699 156.332C573.461 159.512 577.263 160.956 580.692 159.748L583.455 158.774C585.58 158.025 587.93 158.278 589.847 159.46C592.219 160.923 595.209 160.941 597.598 159.507L601.014 157.458C603.723 155.832 606.902 155.171 610.035 155.58L620.073 156.892C623.567 157.348 627.12 156.823 630.332 155.373C633.288 154.04 636.536 153.486 639.766 153.765L651.011 154.737C652.514 154.867 653.825 155.811 654.424 157.196C654.965 158.448 654.849 159.887 654.114 161.036L653.269 162.356C652.213 164.006 651.892 166.021 652.381 167.918L652.823 169.631C653.237 171.234 653.287 172.91 652.97 174.535L652.094 179.027C651.795 180.556 650.725 181.821 649.266 182.368C647.391 183.071 646.209 184.932 646.37 186.927L647.586 202.045C647.655 202.893 647.06 203.65 646.22 203.785C645.424 203.912 644.654 203.438 644.41 202.669L641.822 194.527C640.41 190.086 635.818 187.48 631.281 188.544C629.203 189.032 627.369 190.248 626.112 191.972L625.091 193.371C622.487 196.942 621.781 201.556 623.199 205.742L626.193 214.579C627.346 217.98 626.559 221.738 624.14 224.391L622.403 226.296C621.477 227.312 621.064 228.694 621.281 230.051L621.46 231.166C621.873 233.75 619.57 235.948 617.008 235.414C614.337 234.858 611.99 237.258 612.606 239.916L614.388 247.605C615.159 250.935 613.929 254.409 611.234 256.512L608.05 258.996C606.25 260.401 605.198 262.556 605.198 264.84V268.927C605.198 270.763 603.709 272.251 601.873 272.251H599.532C598.558 272.251 597.844 273.167 598.08 274.112C598.478 275.702 596.397 276.683 595.423 275.364L586.999 263.96C585.814 262.355 583.681 261.775 581.846 262.558L579.038 263.755C577.306 264.495 575.883 265.81 575.009 267.478L570.885 275.351C570.493 276.099 569.456 276.183 568.949 275.508L559.658 263.145C556.713 259.225 552.509 256.437 547.752 255.247L542.465 253.518C540.522 252.882 538.983 255.22 540.336 256.754C540.529 256.972 540.767 257.146 541.034 257.264L541.209 257.34C543.133 258.185 543.527 260.742 541.947 262.128L539.465 264.304C537.946 265.636 535.771 265.916 533.964 265.012L531.824 263.942C528.314 262.187 524.442 265.572 525.712 269.285C526.319 271.059 527.987 272.251 529.862 272.251H529.982C533.268 272.251 535.473 275.625 534.153 278.634L528.803 290.832C528.492 291.541 528.244 292.276 528.061 293.028L525.609 303.124C524.832 306.325 523.375 309.322 521.337 311.911L511.573 324.319C510.042 326.264 507.704 327.399 505.23 327.399C503.036 327.399 500.936 326.506 499.415 324.925L497.253 322.679C494.492 319.81 492.949 315.983 492.949 312.001V300.285L491.733 290.404C491.333 287.15 489.74 284.16 487.262 282.013C485.277 280.293 482.826 279.202 480.22 278.878L479.245 278.757C470.995 277.731 464.801 270.72 464.801 262.407ZM400.513 166.77L398.753 169.208C397 171.635 393.308 171.378 391.909 168.731C390.907 166.836 391.561 164.487 393.399 163.383L395.976 161.834C396.928 161.262 398.099 161.188 399.115 161.635C401.11 162.512 401.788 165.004 400.513 166.77ZM405.17 170.656L403.395 171.905C402.637 172.438 402.186 173.308 402.186 174.235C402.186 175.241 402.716 176.173 403.582 176.686L407.963 179.284C410.507 180.792 412.066 183.531 412.066 186.488V186.974C412.066 188.267 412.439 189.534 413.14 190.62L414.149 192.184C415.551 194.357 418.422 195.028 420.642 193.703C422.498 192.596 423.385 190.384 422.808 188.3L419.856 177.647C418.998 174.554 416.787 172.016 413.84 170.744L412.004 169.951C409.758 168.981 407.17 169.248 405.17 170.656ZM445.372 144.743L428.02 154.921C426.535 155.791 425.623 157.384 425.623 159.105C425.623 160.346 426.099 161.539 426.952 162.44L429.981 165.64C433.646 169.51 435.129 174.959 433.933 180.153L431.389 191.195C431.013 192.827 431.412 194.54 432.469 195.838C434.343 198.137 437.716 198.504 440.041 196.661L451.594 187.503C455.718 184.233 458.417 179.493 459.123 174.277L459.661 170.298C459.946 168.193 460.521 166.139 461.37 164.193L463.527 159.247C464.361 157.336 464.658 155.234 464.386 153.167C463.742 148.263 460.028 144.324 455.17 143.393L454.244 143.215C451.199 142.631 448.046 143.174 445.372 144.743ZM314.928 190.965C313.339 182.443 314.742 164.826 331.796 157.314C332.15 157.158 332.504 156.994 332.859 156.829L332.859 156.828C334.353 156.134 335.868 155.43 337.491 155.313C340.85 155.07 346.078 156.893 352.069 164.506C352.287 164.783 352.493 165.05 352.693 165.309L352.693 165.309C354.126 167.164 355.203 168.56 357.506 169.598C361.886 171.573 364.813 167.636 367.754 163.68C370.686 159.735 373.632 155.772 378.046 157.635C379.28 158.157 380.804 159.191 382.672 160.875C384.628 162.637 386.037 164.93 387.031 167.368L389.137 172.534C389.915 174.441 391.419 175.96 393.319 176.756C398.353 178.864 399.688 185.378 395.889 189.297L391.085 194.252C388.038 197.394 388.181 202.43 391.4 205.395L393.24 207.09C395.991 209.623 400.384 208.931 402.222 205.675C404.3 201.994 409.491 201.699 411.971 205.122L415.975 210.647C419.088 214.943 418.381 220.909 414.348 224.357L390.816 244.48C389.646 245.48 388.973 246.942 388.973 248.481C388.973 252.211 385.199 254.758 381.74 253.361L379.314 252.382C375.087 250.675 370.476 253.786 370.476 258.345C370.476 260.563 371.619 262.625 373.501 263.8L384.418 270.615C388.197 272.974 392.796 273.63 397.084 272.42C401.359 271.215 405.944 271.862 409.717 274.205L431.575 287.774C436.976 291.127 438.628 298.23 435.259 303.622L414.555 336.766C413.437 338.555 412.571 340.489 411.981 342.515L410.368 348.055C409.752 350.169 409.774 352.417 410.431 354.518L412.373 360.734C412.669 361.682 412.318 362.712 411.505 363.282C410.394 364.059 408.853 363.701 408.2 362.512L400.646 348.771C399.32 346.357 398.624 343.648 398.624 340.894V316.911C398.624 311.947 396.571 307.204 392.952 303.807L390.769 301.758C387.517 298.706 386.106 294.17 387.054 289.812C388.203 284.527 385.876 279.096 381.257 276.282L366.053 267.018C364.881 266.303 363.887 265.331 363.147 264.175L352.277 247.198C351.61 246.154 350.007 246.488 349.811 247.711C349.591 249.084 347.69 249.266 347.213 247.96L342.756 235.741C342.475 234.971 342.399 234.143 342.535 233.335L344.915 219.197C345.699 214.544 345.031 209.763 343.002 205.503L336.94 192.773C335.529 189.809 332.539 187.921 329.256 187.921H328.971C327.348 187.921 325.767 188.439 324.457 189.398L319.758 192.84C318.148 194.02 315.858 193.376 315.097 191.53C315.022 191.346 314.964 191.161 314.928 190.965ZM608.866 282.082L608.088 282.999C606.529 284.835 606.672 287.567 608.412 289.23L609.167 289.951C609.976 290.724 611.147 290.987 612.209 290.633C613.442 290.222 614.274 289.067 614.274 287.767V284.068C614.274 282.945 613.661 281.912 612.675 281.374C611.398 280.678 609.808 280.974 608.866 282.082ZM608.07 320.018V322.602C608.07 327.535 612.069 331.535 617.003 331.535C618.01 331.535 619.01 331.364 619.961 331.031L621.408 330.523C623.77 329.695 626.353 329.759 628.671 330.705C630.011 331.252 631.219 332.077 632.218 333.125L636.324 337.437C637.161 338.315 638.194 338.981 639.339 339.38C642.744 340.567 646.514 339.208 648.38 336.123L649.975 333.485C650.753 332.198 651.27 330.769 651.495 329.282L652.466 322.876C652.732 321.116 652.406 319.317 651.537 317.763L644.906 305.901C644.006 304.291 641.618 304.529 641.054 306.286C640.774 307.16 639.962 307.752 639.044 307.752H638.478C637.317 307.752 636.269 307.057 635.818 305.988L635.425 305.056C634.386 302.593 631.412 301.613 629.113 302.976L622.428 306.937C621.516 307.478 620.531 307.886 619.504 308.15L616.724 308.863C611.631 310.17 608.07 314.761 608.07 320.018ZM593.133 285.892L596.708 291.521C597.13 292.185 597.862 292.587 598.648 292.587C599.918 292.587 600.947 291.558 600.947 290.288V290.083C600.947 289.475 600.726 288.888 600.325 288.432L596.129 283.648C595.58 283.022 594.683 282.832 593.927 283.183C592.898 283.661 592.525 284.935 593.133 285.892ZM529.08 310.695L532.721 305.11C533.341 304.16 534.655 303.972 535.516 304.71C536.148 305.253 536.348 306.147 536.005 306.907L533.39 312.707C533.14 313.261 532.698 313.706 532.145 313.957L531.958 314.043C530.802 314.569 529.439 314.058 528.913 312.903C528.588 312.187 528.65 311.354 529.08 310.695ZM639.934 295.397L640.399 295.825C641.109 296.476 642.038 296.838 643.002 296.838H645.21C646.174 296.838 647.125 297.051 647.995 297.463L651.501 299.12C652.361 299.527 653.389 299.251 653.931 298.469C654.551 297.573 654.315 296.343 653.407 295.741L644.361 289.741C643.771 289.349 643.078 289.14 642.37 289.14C639.085 289.14 637.514 293.176 639.934 295.397ZM666.431 352.041L661.135 356.523C660.53 357.035 660.332 357.883 660.648 358.61C661.002 359.425 661.899 359.858 662.758 359.629L664.398 359.192C665.663 358.855 666.663 357.884 667.038 356.63L668.085 353.124C668.378 352.141 667.214 351.379 666.431 352.041ZM670.823 346.2L672.839 339.562C673.137 338.581 674.529 338.589 674.816 339.573L675.839 343.086C676.205 344.344 675.892 345.701 675.012 346.671L673.872 347.929C673.275 348.587 672.286 348.71 671.546 348.217C670.886 347.778 670.592 346.958 670.823 346.2Z" fill="#A7CF75"/>
</g>
<g opacity="0.6" filter="url(#filter3_f_15_4632)">
<path d="M264.93 129.007L263.933 130.314C261.528 133.47 257.403 134.777 253.619 133.584C252.704 133.295 251.749 133.148 250.789 133.148H242.569C240.03 133.148 237.645 134.363 236.153 136.417C233.575 139.966 234.368 144.934 237.923 147.504L242.248 150.63C245.115 152.703 248.692 153.544 252.183 152.964L259.472 151.754C260.71 151.548 261.923 151.213 263.09 150.752C269.524 148.216 276.844 149.631 281.869 154.382L288.597 160.744C289.808 161.89 291.123 162.923 292.523 163.829C304.71 171.721 320.941 168.713 329.491 156.978L333.522 151.445C335.767 148.363 336.573 144.462 335.732 140.742L334.315 134.472C333.375 130.315 329.088 127.845 325.02 129.117C323.517 129.587 322.207 130.531 321.285 131.807L320.866 132.387C318.452 135.727 314.152 137.117 310.24 135.822L282.859 126.755L278.302 125.092C273.468 123.328 268.049 124.915 264.93 129.007Z" fill="white"/>
<path d="M177.026 245.404L176.029 246.711C173.624 249.866 169.499 251.174 165.715 249.981L165.54 249.925C164.74 249.673 163.907 249.545 163.069 249.545H160.424C155.782 249.545 152.651 254.288 154.475 258.556C157 265.355 163.993 269.408 171.148 268.22L171.768 268.117C172.873 267.934 173.955 267.634 174.997 267.224L175.186 267.149C181.62 264.612 188.94 266.027 193.965 270.779L200.692 277.141C201.904 278.287 203.218 279.32 204.619 280.226C216.806 288.118 233.037 285.11 241.586 273.374L243.392 270.897C247.051 265.873 248.365 259.514 246.995 253.452C245.526 246.954 241.135 241.501 235.101 238.679L234.767 238.523C229.424 235.168 222.877 234.33 216.862 236.23L199.024 241.866C196.385 242.7 193.545 242.638 190.946 241.689L190.398 241.489C185.564 239.725 180.145 241.311 177.026 245.404Z" fill="white"/>
<path d="M387.274 324.004L343.382 334.711C340.08 335.517 336.62 335.402 333.378 334.38L331.853 333.898C331.053 333.646 330.22 333.518 329.381 333.518H326.737C322.095 333.518 318.964 338.261 320.788 342.529C323.313 349.328 330.305 353.381 337.46 352.194L339.743 351.815L377.81 348.586C389.966 347.554 401.985 351.758 410.849 360.14L411.879 361.114C413.091 362.26 414.405 363.293 415.805 364.199C427.993 372.091 444.223 369.083 452.773 357.348L454.578 354.87C458.238 349.846 459.552 343.488 458.181 337.425C456.713 330.927 452.322 325.474 446.288 322.652L445.954 322.496C440.611 319.141 434.064 318.303 428.049 320.203L412.948 324.975C408.534 326.369 403.784 326.265 399.436 324.678C395.538 323.255 391.305 323.021 387.274 324.004Z" fill="white"/>
<path d="M118.192 173.125L119.188 174.432C121.593 177.587 125.719 178.895 129.502 177.702L129.678 177.646C130.477 177.394 131.311 177.266 132.149 177.266H134.794C139.435 177.266 142.566 182.009 140.742 186.277C138.217 193.076 131.225 197.129 124.07 195.942L123.449 195.838C122.344 195.655 121.262 195.355 120.22 194.945L120.031 194.87C113.598 192.333 106.277 193.749 101.252 198.5L94.525 204.862C93.3131 206.008 91.9989 207.041 90.5989 207.947C78.4112 215.839 62.1809 212.831 53.631 201.095L51.8258 198.618C48.1659 193.594 46.8526 187.235 48.2229 181.173C49.6915 174.675 54.0821 169.222 60.1165 166.4L60.4501 166.244C65.7929 162.889 72.3399 162.051 78.3556 163.951L96.1934 169.587C98.8319 170.421 101.672 170.359 104.271 169.41L104.819 169.21C109.653 167.446 115.072 169.032 118.192 173.125Z" fill="white"/>
</g>
<g opacity="0.4" filter="url(#filter4_f_15_4632)">
<path d="M190.026 76.1218C89.717 183.493 151.402 359.337 296.805 380.514L343.425 387.304L-69.6811 342.105L190.026 76.1218Z" fill="#1E819A"/>
</g>
<g opacity="0.3" filter="url(#filter5_f_15_4632)">
<path d="M223.775 407.243C330.528 306.276 279.828 126.957 136.011 96.8343L89.9004 87.1763L499.423 157.818L223.775 407.243Z" fill="white"/>
</g>
</g>
</g>
<defs>
<filter id="filter0_d_15_4632" x="50.9166" y="88.5125" width="307.167" height="307.167" filterUnits="userSpaceOnUse" color-interpolation-filters="sRGB">
<feFlood flood-opacity="0" result="BackgroundImageFix"/>
<feColorMatrix in="SourceAlpha" type="matrix" values="0 0 0 0 0 0 0 0 0 0 0 0 0 0 0 0 0 0 127 0" result="hardAlpha"/>
<feOffset/>
<feGaussianBlur stdDeviation="16.1667"/>
<feComposite in2="hardAlpha" operator="out"/>
<feColorMatrix type="matrix" values="0 0 0 0 0 0 0 0 0 0.458156 0 0 0 0 0.566667 0 0 0 0.6 0"/>
<feBlend mode="normal" in2="BackgroundImageFix" result="effect1_dropShadow_15_4632"/>
<feBlend mode="normal" in="SourceGraphic" in2="effect1_dropShadow_15_4632" result="shape"/>
</filter>
<filter id="filter1_d_15_4632" x="-69.3168" y="123.648" width="401.556" height="264.046" filterUnits="userSpaceOnUse" color-interpolation-filters="sRGB">
<feFlood flood-opacity="0" result="BackgroundImageFix"/>
<feColorMatrix in="SourceAlpha" type="matrix" values="0 0 0 0 0 0 0 0 0 0 0 0 0 0 0 0 0 0 127 0" result="hardAlpha"/>
<feOffset dy="4"/>
<feGaussianBlur stdDeviation="10"/>
<feComposite in2="hardAlpha" operator="out"/>
<feColorMatrix type="matrix" values="0 0 0 0 0.160417 0 0 0 0 0.619952 0 0 0 0 0.7 0 0 0 1 0"/>
<feBlend mode="normal" in2="BackgroundImageFix" result="effect1_dropShadow_15_4632"/>
<feBlend mode="normal" in="SourceGraphic" in2="effect1_dropShadow_15_4632" result="shape"/>
</filter>
<filter id="filter2_d_15_4632" x="294.433" y="123.648" width="401.556" height="264.046" filterUnits="userSpaceOnUse" color-interpolation-filters="sRGB">
<feFlood flood-opacity="0" result="BackgroundImageFix"/>
<feColorMatrix in="SourceAlpha" type="matrix" values="0 0 0 0 0 0 0 0 0 0 0 0 0 0 0 0 0 0 127 0" result="hardAlpha"/>
<feOffset dy="4"/>
<feGaussianBlur stdDeviation="10"/>
<feComposite in2="hardAlpha" operator="out"/>
<feColorMatrix type="matrix" values="0 0 0 0 0.160417 0 0 0 0 0.619952 0 0 0 0 0.7 0 0 0 1 0"/>
<feBlend mode="normal" in2="BackgroundImageFix" result="effect1_dropShadow_15_4632"/>
<feBlend mode="normal" in="SourceGraphic" in2="effect1_dropShadow_15_4632" result="shape"/>
</filter>
<filter id="filter3_f_15_4632" x="-534.712" y="116.296" width="1001.51" height="260.381" filterUnits="userSpaceOnUse" color-interpolation-filters="sRGB">
<feFlood flood-opacity="0" result="BackgroundImageFix"/>
<feBlend mode="normal" in="SourceGraphic" in2="BackgroundImageFix" result="shape"/>
<feGaussianBlur stdDeviation="4.04167" result="effect1_foregroundBlur_15_4632"/>
</filter>
<filter id="filter4_f_15_4632" x="-85.8478" y="59.9551" width="445.439" height="343.515" filterUnits="userSpaceOnUse" color-interpolation-filters="sRGB">
<feFlood flood-opacity="0" result="BackgroundImageFix"/>
<feBlend mode="normal" in="SourceGraphic" in2="BackgroundImageFix" result="shape"/>
<feGaussianBlur stdDeviation="8.08333" result="effect1_foregroundBlur_15_4632"/>
</filter>
<filter id="filter5_f_15_4632" x="57.5671" y="54.843" width="474.19" height="384.734" filterUnits="userSpaceOnUse" color-interpolation-filters="sRGB">
<feFlood flood-opacity="0" result="BackgroundImageFix"/>
<feBlend mode="normal" in="SourceGraphic" in2="BackgroundImageFix" result="shape"/>
<feGaussianBlur stdDeviation="16.1667" result="effect1_foregroundBlur_15_4632"/>
</filter>
<linearGradient id="paint0_linear_15_4632" x1="145.467" y1="246.86" x2="351.795" y2="229.33" gradientUnits="userSpaceOnUse">
<stop stop-color="#228EA9"/>
<stop offset="1" stop-color="#02DEFE"/>
</linearGradient>
<clipPath id="clip0_15_4632">
<rect x="83.2499" y="120.846" width="242.5" height="242.5" rx="121.25" fill="white"/>
</clipPath>
</defs>
</svg>
