<svg width="237" height="233" viewBox="0 0 237 233" fill="none" xmlns="http://www.w3.org/2000/svg">
<g opacity="0.7">
<g filter="url(#filter0_d_15_4633)">
<g clip-path="url(#clip0_15_4633)">
<rect x="85.4776" y="101.732" width="186.5" height="186.5" rx="93.25" transform="rotate(-5 85.4776 101.732)" fill="url(#paint0_linear_15_4633)"/>
<g filter="url(#filter1_i_15_4633)">
<path d="M178.526 138.54C173.798 141.435 169.548 139.558 166.578 134.705C163.607 129.853 165.032 123.573 169.76 120.679C174.488 117.785 180.141 119.423 183.111 124.275C186.081 129.127 183.254 135.646 178.526 138.54Z" fill="#E31949"/>
</g>
<g filter="url(#filter2_i_15_4633)">
<path d="M178.31 134.646C175.324 136.474 170.521 136.087 168.693 133.101C166.865 130.115 168.516 124.847 171.503 123.019C174.489 121.191 178.58 122.944 180.407 125.93C182.235 128.916 181.296 132.819 178.31 134.646Z" fill="#C60C38"/>
</g>
<g filter="url(#filter3_i_15_4633)">
<path d="M236.942 163.022C230.448 170.306 225.463 166.492 217.988 159.828C210.512 153.164 206.585 144.671 213.078 137.387C219.571 130.104 229.929 129.986 237.405 136.65C244.88 143.315 243.435 155.738 236.942 163.022Z" fill="#E31949"/>
</g>
<g filter="url(#filter4_i_15_4633)">
<path d="M234.596 156.57C230.495 161.171 224.988 159.84 220.388 155.739C215.787 151.638 213.104 145.044 217.205 140.444C221.306 135.844 229.092 136.714 233.692 140.815C238.292 144.916 238.697 151.97 234.596 156.57Z" fill="#C60C38"/>
</g>
<g opacity="0.5" filter="url(#filter5_i_15_4633)">
<path d="M129.183 173.743C124.392 181.071 127.156 187.867 134.676 192.784C142.197 197.7 152.176 195.745 156.966 188.418C161.757 181.09 159.436 172.091 151.916 167.175C144.396 162.259 133.973 166.416 129.183 173.743Z" fill="#E31949"/>
</g>
<g filter="url(#filter6_i_15_4633)">
<path d="M135.319 174.266C132.294 178.894 132.68 186.495 137.308 189.52C141.936 192.546 150.329 190.186 153.354 185.558C156.38 180.93 153.805 174.39 149.177 171.365C144.549 168.339 138.345 169.638 135.319 174.266Z" fill="#C60C38"/>
</g>
<g filter="url(#filter7_i_15_4633)">
<path d="M138.294 141.875C137.404 143.236 137.518 145.472 138.879 146.362C140.24 147.252 142.708 146.557 143.598 145.196C144.488 143.835 143.731 141.912 142.37 141.022C141.009 140.132 139.184 140.514 138.294 141.875Z" fill="#E31949"/>
</g>
<g filter="url(#filter8_i_15_4633)">
<path d="M98.1558 111.065C97.266 112.426 97.3795 114.661 98.7407 115.551C100.102 116.441 102.57 115.747 103.46 114.386C104.35 113.025 103.593 111.101 102.232 110.211C100.87 109.321 99.0456 109.704 98.1558 111.065Z" fill="#E31949"/>
</g>
<g opacity="0.8">
<g filter="url(#filter9_i_15_4633)">
<path d="M120.418 136.919C115.282 135.49 108.411 138.064 106.982 143.2C105.553 148.336 110.172 155.36 115.308 156.788C120.445 158.217 125.702 153.942 127.131 148.806C128.56 143.669 125.554 138.348 120.418 136.919Z" fill="#E31949"/>
</g>
<g filter="url(#filter10_i_15_4633)">
<path d="M116.76 139.771C113.897 138.975 110.066 140.41 109.27 143.273C108.474 146.136 111.049 150.051 113.912 150.847C116.775 151.644 119.705 149.26 120.502 146.397C121.298 143.534 119.623 140.568 116.76 139.771Z" fill="#C60C38"/>
</g>
</g>
<g filter="url(#filter11_i_15_4633)">
<path d="M65.1644 195.567C66.7875 204.839 73.9505 208.144 83.466 206.478C92.9816 204.813 99.3797 195.946 97.7566 186.675C96.1335 177.403 87.7003 172.044 78.1847 173.709C68.6692 175.375 63.5413 186.296 65.1644 195.567Z" fill="#E31949"/>
</g>
<g filter="url(#filter12_i_15_4633)">
<path d="M70.3659 191.469C71.391 197.325 77.2784 203.008 83.1341 201.983C88.9899 200.958 93.8445 192.939 92.8194 187.083C91.7943 181.227 84.9682 177.985 79.1125 179.01C73.2568 180.036 69.3408 185.614 70.3659 191.469Z" fill="#C60C38"/>
</g>
<g filter="url(#filter13_i_15_4633)">
<path d="M209.087 93.7472C203.946 101.612 206.912 108.907 214.984 114.184C223.056 119.461 233.767 117.363 238.909 109.498C244.05 101.633 241.56 91.9743 233.488 86.6974C225.416 81.4205 214.229 85.8823 209.087 93.7472Z" fill="#E31949"/>
</g>
<g filter="url(#filter14_i_15_4633)">
<path d="M215.674 94.3087C212.427 99.276 212.841 107.434 217.808 110.682C222.776 113.929 231.784 111.396 235.031 106.428C238.279 101.461 235.515 94.4416 230.548 91.1943C225.581 87.947 218.921 89.3413 215.674 94.3087Z" fill="#C60C38"/>
</g>
<circle cx="170.953" cy="229.938" r="2.25166" transform="rotate(-5 170.953 229.938)" fill="#C60C38"/>
<circle cx="144.441" cy="231.873" r="2.25166" transform="rotate(-5 144.441 231.873)" fill="#BA1F44"/>
<circle cx="159.533" cy="151.074" r="2.25166" transform="rotate(-5 159.533 151.074)" fill="#E31949"/>
<circle cx="208.833" cy="232.324" r="2.25166" transform="rotate(-5 208.833 232.324)" fill="#E31949"/>
<circle cx="189.136" cy="135.144" r="2.25166" transform="rotate(-5 189.136 135.144)" fill="#E31949"/>
<circle cx="169.028" cy="156.271" r="2.25166" transform="rotate(-5 169.028 156.271)" fill="#E31949"/>
<circle cx="121.577" cy="182.271" r="2.25166" transform="rotate(-5 121.577 182.271)" fill="#BA1F44"/>
<path d="M-339.024 271.168L-275.834 245.098C-258.357 237.887 -239.082 236.236 -220.632 240.369L-183.183 248.758C-164.842 252.866 -145.682 251.259 -128.282 244.152L-90.368 228.666C-73.0725 221.602 -54.0363 219.97 -35.791 223.988L2.94786 232.52C21.4121 236.586 40.6809 234.865 58.1324 227.591L94.3471 212.497C111.903 205.179 131.296 203.483 149.856 207.64L187.963 216.177C206.523 220.334 225.916 218.638 243.472 211.32L279.518 196.296C297.074 188.979 316.467 187.282 335.027 191.44L401.66 206.367" stroke="#A60823" stroke-width="4.97333"/>
<path d="M-352.881 291.102L-289.691 265.032C-272.214 257.821 -252.939 256.17 -234.489 260.302L-197.041 268.691C-178.699 272.8 -159.54 271.193 -142.139 264.086L-104.225 248.6C-86.9296 241.536 -67.8934 239.904 -49.648 243.922L-10.9092 252.453C7.55508 256.519 26.8238 254.798 44.2753 247.525L80.4901 232.43C98.0463 225.113 117.439 223.416 135.999 227.574L174.106 236.11C192.666 240.268 212.059 238.571 229.615 231.254L265.661 216.23C283.217 208.913 302.61 207.216 321.17 211.374L387.803 226.3" stroke="#A60823" stroke-width="4.97333"/>
<path d="M-367.551 301.746L-304.361 275.676C-286.883 268.465 -267.609 266.814 -249.159 270.946L-211.71 279.335C-193.369 283.444 -174.209 281.837 -156.809 274.73L-118.895 259.244C-101.599 252.18 -82.5632 250.548 -64.3178 254.566L-25.579 263.097C-7.11472 267.163 12.154 265.442 29.6055 258.169L65.8203 243.074C83.3765 235.757 102.769 234.06 121.329 238.218L159.436 246.754C177.997 250.912 197.389 249.215 214.945 241.898L250.991 226.874C268.547 219.557 287.94 217.86 306.5 222.018L373.133 236.944" stroke="#A60823" stroke-width="7.46"/>
<path d="M-347.772 278.174L-284.582 252.104C-267.104 244.893 -247.829 243.242 -229.38 247.375L-191.931 255.763C-173.59 259.872 -154.43 258.265 -137.03 251.158L-99.1157 235.672C-81.8202 228.608 -62.784 226.976 -44.5386 230.994L-5.79982 239.525C12.6645 243.591 31.9332 241.871 49.3847 234.597L85.5995 219.502C103.156 212.185 122.548 210.488 141.108 214.646L179.216 223.183C197.776 227.34 217.168 225.644 234.724 218.326L270.77 203.302C288.327 195.985 307.719 194.288 326.279 198.446L392.913 213.372" stroke="#A60823" stroke-width="2.48667"/>
<path d="M-334.844 283.283L-271.654 257.213C-254.176 250.002 -234.902 248.351 -216.452 252.484L-179.003 260.873C-160.662 264.981 -141.502 263.374 -124.102 256.267L-86.1878 240.781C-68.8924 233.717 -49.8561 232.086 -31.6108 236.104L7.12804 244.635C25.5923 248.701 44.861 246.98 62.3125 239.706L98.5273 224.612C116.084 217.294 135.476 215.598 154.036 219.755L192.143 228.292C210.704 232.45 230.096 230.753 247.652 223.435L283.698 208.411C301.255 201.094 320.647 199.397 339.207 203.555L405.84 218.482" stroke="#A60823" stroke-width="2.48667"/>
<g opacity="0.3" filter="url(#filter15_f_15_4633)">
<path d="M152.77 63.9414V63.9414C92.799 159.721 165.172 283.42 278.051 278.07L314.242 276.355L-4.26162 302.855L152.77 63.9414Z" fill="#86041B"/>
</g>
<g opacity="0.3" filter="url(#filter16_f_15_4633)">
<path d="M179.233 319.302V319.302C262.843 243.279 226.569 104.63 116.44 79.2946L81.1307 71.1715L394.955 131.679L179.233 319.302Z" fill="#FF698D"/>
</g>
</g>
</g>
</g>
<defs>
<filter id="filter0_d_15_4633" x="15.5401" y="18.0267" width="341.92" height="341.92" filterUnits="userSpaceOnUse" color-interpolation-filters="sRGB">
<feFlood flood-opacity="0" result="BackgroundImageFix"/>
<feColorMatrix in="SourceAlpha" type="matrix" values="0 0 0 0 0 0 0 0 0 0 0 0 0 0 0 0 0 0 127 0" result="hardAlpha"/>
<feMorphology radius="7.77083" operator="dilate" in="SourceAlpha" result="effect1_dropShadow_15_4633"/>
<feOffset dy="2.48667"/>
<feGaussianBlur stdDeviation="31.0833"/>
<feComposite in2="hardAlpha" operator="out"/>
<feColorMatrix type="matrix" values="0 0 0 0 0.9125 0 0 0 0 0.0114062 0 0 0 0 0.221506 0 0 0 0.4 0"/>
<feBlend mode="normal" in2="BackgroundImageFix" result="effect1_dropShadow_15_4633"/>
<feBlend mode="normal" in="SourceGraphic" in2="effect1_dropShadow_15_4633" result="shape"/>
</filter>
<filter id="filter1_i_15_4633" x="165.027" y="119.246" width="19.301" height="21.8046" filterUnits="userSpaceOnUse" color-interpolation-filters="sRGB">
<feFlood flood-opacity="0" result="BackgroundImageFix"/>
<feBlend mode="normal" in="SourceGraphic" in2="BackgroundImageFix" result="shape"/>
<feColorMatrix in="SourceAlpha" type="matrix" values="0 0 0 0 0 0 0 0 0 0 0 0 0 0 0 0 0 0 127 0" result="hardAlpha"/>
<feOffset dy="1.13892"/>
<feGaussianBlur stdDeviation="1.13892"/>
<feComposite in2="hardAlpha" operator="arithmetic" k2="-1" k3="1"/>
<feColorMatrix type="matrix" values="0 0 0 0 0.541667 0 0 0 0 0.040625 0 0 0 0 0.142143 0 0 0 1 0"/>
<feBlend mode="normal" in2="shape" result="effect1_innerShadow_15_4633"/>
</filter>
<filter id="filter2_i_15_4633" x="167.928" y="122.274" width="13.413" height="14.6168" filterUnits="userSpaceOnUse" color-interpolation-filters="sRGB">
<feFlood flood-opacity="0" result="BackgroundImageFix"/>
<feBlend mode="normal" in="SourceGraphic" in2="BackgroundImageFix" result="shape"/>
<feColorMatrix in="SourceAlpha" type="matrix" values="0 0 0 0 0 0 0 0 0 0 0 0 0 0 0 0 0 0 127 0" result="hardAlpha"/>
<feOffset dy="1.13892"/>
<feGaussianBlur stdDeviation="1.13892"/>
<feComposite in2="hardAlpha" operator="arithmetic" k2="-1" k3="1"/>
<feColorMatrix type="matrix" values="0 0 0 0 0.541667 0 0 0 0 0.040625 0 0 0 0 0.142143 0 0 0 1 0"/>
<feBlend mode="normal" in2="shape" result="effect1_innerShadow_15_4633"/>
</filter>
<filter id="filter3_i_15_4633" x="209.795" y="131.784" width="32.6408" height="36.3261" filterUnits="userSpaceOnUse" color-interpolation-filters="sRGB">
<feFlood flood-opacity="0" result="BackgroundImageFix"/>
<feBlend mode="normal" in="SourceGraphic" in2="BackgroundImageFix" result="shape"/>
<feColorMatrix in="SourceAlpha" type="matrix" values="0 0 0 0 0 0 0 0 0 0 0 0 0 0 0 0 0 0 127 0" result="hardAlpha"/>
<feOffset dy="1.13892"/>
<feGaussianBlur stdDeviation="1.13892"/>
<feComposite in2="hardAlpha" operator="arithmetic" k2="-1" k3="1"/>
<feColorMatrix type="matrix" values="0 0 0 0 0.541667 0 0 0 0 0.040625 0 0 0 0 0.142143 0 0 0 1 0"/>
<feBlend mode="normal" in2="shape" result="effect1_innerShadow_15_4633"/>
</filter>
<filter id="filter4_i_15_4633" x="215.183" y="137.35" width="22.2421" height="23.256" filterUnits="userSpaceOnUse" color-interpolation-filters="sRGB">
<feFlood flood-opacity="0" result="BackgroundImageFix"/>
<feBlend mode="normal" in="SourceGraphic" in2="BackgroundImageFix" result="shape"/>
<feColorMatrix in="SourceAlpha" type="matrix" values="0 0 0 0 0 0 0 0 0 0 0 0 0 0 0 0 0 0 127 0" result="hardAlpha"/>
<feOffset dy="1.13892"/>
<feGaussianBlur stdDeviation="1.13892"/>
<feComposite in2="hardAlpha" operator="arithmetic" k2="-1" k3="1"/>
<feColorMatrix type="matrix" values="0 0 0 0 0.541667 0 0 0 0 0.040625 0 0 0 0 0.142143 0 0 0 1 0"/>
<feBlend mode="normal" in2="shape" result="effect1_innerShadow_15_4633"/>
</filter>
<filter id="filter5_i_15_4633" x="126.806" y="165.041" width="32.6588" height="31.593" filterUnits="userSpaceOnUse" color-interpolation-filters="sRGB">
<feFlood flood-opacity="0" result="BackgroundImageFix"/>
<feBlend mode="normal" in="SourceGraphic" in2="BackgroundImageFix" result="shape"/>
<feColorMatrix in="SourceAlpha" type="matrix" values="0 0 0 0 0 0 0 0 0 0 0 0 0 0 0 0 0 0 127 0" result="hardAlpha"/>
<feOffset dy="1.13892"/>
<feGaussianBlur stdDeviation="1.13892"/>
<feComposite in2="hardAlpha" operator="arithmetic" k2="-1" k3="1"/>
<feColorMatrix type="matrix" values="0 0 0 0 0.541667 0 0 0 0 0.040625 0 0 0 0 0.142143 0 0 0 1 0"/>
<feBlend mode="normal" in2="shape" result="effect1_innerShadow_15_4633"/>
</filter>
<filter id="filter6_i_15_4633" x="133.374" y="169.732" width="21.2865" height="22.2813" filterUnits="userSpaceOnUse" color-interpolation-filters="sRGB">
<feFlood flood-opacity="0" result="BackgroundImageFix"/>
<feBlend mode="normal" in="SourceGraphic" in2="BackgroundImageFix" result="shape"/>
<feColorMatrix in="SourceAlpha" type="matrix" values="0 0 0 0 0 0 0 0 0 0 0 0 0 0 0 0 0 0 127 0" result="hardAlpha"/>
<feOffset dy="1.13892"/>
<feGaussianBlur stdDeviation="1.13892"/>
<feComposite in2="hardAlpha" operator="arithmetic" k2="-1" k3="1"/>
<feColorMatrix type="matrix" values="0 0 0 0 0.541667 0 0 0 0 0.040625 0 0 0 0 0.142143 0 0 0 1 0"/>
<feBlend mode="normal" in2="shape" result="effect1_innerShadow_15_4633"/>
</filter>
<filter id="filter7_i_15_4633" x="137.722" y="140.542" width="6.26077" height="7.35727" filterUnits="userSpaceOnUse" color-interpolation-filters="sRGB">
<feFlood flood-opacity="0" result="BackgroundImageFix"/>
<feBlend mode="normal" in="SourceGraphic" in2="BackgroundImageFix" result="shape"/>
<feColorMatrix in="SourceAlpha" type="matrix" values="0 0 0 0 0 0 0 0 0 0 0 0 0 0 0 0 0 0 127 0" result="hardAlpha"/>
<feOffset dy="1.13892"/>
<feGaussianBlur stdDeviation="1.13892"/>
<feComposite in2="hardAlpha" operator="arithmetic" k2="-1" k3="1"/>
<feColorMatrix type="matrix" values="0 0 0 0 0.541667 0 0 0 0 0.040625 0 0 0 0 0.142143 0 0 0 1 0"/>
<feBlend mode="normal" in2="shape" result="effect1_innerShadow_15_4633"/>
</filter>
<filter id="filter8_i_15_4633" x="97.5837" y="109.731" width="6.26077" height="7.35727" filterUnits="userSpaceOnUse" color-interpolation-filters="sRGB">
<feFlood flood-opacity="0" result="BackgroundImageFix"/>
<feBlend mode="normal" in="SourceGraphic" in2="BackgroundImageFix" result="shape"/>
<feColorMatrix in="SourceAlpha" type="matrix" values="0 0 0 0 0 0 0 0 0 0 0 0 0 0 0 0 0 0 127 0" result="hardAlpha"/>
<feOffset dy="1.13892"/>
<feGaussianBlur stdDeviation="1.13892"/>
<feComposite in2="hardAlpha" operator="arithmetic" k2="-1" k3="1"/>
<feColorMatrix type="matrix" values="0 0 0 0 0.541667 0 0 0 0 0.040625 0 0 0 0 0.142143 0 0 0 1 0"/>
<feBlend mode="normal" in2="shape" result="effect1_innerShadow_15_4633"/>
</filter>
<filter id="filter9_i_15_4633" x="106.719" y="136.528" width="20.768" height="21.6784" filterUnits="userSpaceOnUse" color-interpolation-filters="sRGB">
<feFlood flood-opacity="0" result="BackgroundImageFix"/>
<feBlend mode="normal" in="SourceGraphic" in2="BackgroundImageFix" result="shape"/>
<feColorMatrix in="SourceAlpha" type="matrix" values="0 0 0 0 0 0 0 0 0 0 0 0 0 0 0 0 0 0 127 0" result="hardAlpha"/>
<feOffset dy="1.13892"/>
<feGaussianBlur stdDeviation="1.13892"/>
<feComposite in2="hardAlpha" operator="arithmetic" k2="-1" k3="1"/>
<feColorMatrix type="matrix" values="0 0 0 0 0.541667 0 0 0 0 0.040625 0 0 0 0 0.142143 0 0 0 1 0"/>
<feBlend mode="normal" in2="shape" result="effect1_innerShadow_15_4633"/>
</filter>
<filter id="filter10_i_15_4633" x="109.123" y="139.553" width="11.5767" height="12.5883" filterUnits="userSpaceOnUse" color-interpolation-filters="sRGB">
<feFlood flood-opacity="0" result="BackgroundImageFix"/>
<feBlend mode="normal" in="SourceGraphic" in2="BackgroundImageFix" result="shape"/>
<feColorMatrix in="SourceAlpha" type="matrix" values="0 0 0 0 0 0 0 0 0 0 0 0 0 0 0 0 0 0 127 0" result="hardAlpha"/>
<feOffset dy="1.13892"/>
<feGaussianBlur stdDeviation="1.13892"/>
<feComposite in2="hardAlpha" operator="arithmetic" k2="-1" k3="1"/>
<feColorMatrix type="matrix" values="0 0 0 0 0.541667 0 0 0 0 0.040625 0 0 0 0 0.142143 0 0 0 1 0"/>
<feBlend mode="normal" in2="shape" result="effect1_innerShadow_15_4633"/>
</filter>
<filter id="filter11_i_15_4633" x="64.8675" y="173.408" width="33.1407" height="34.6237" filterUnits="userSpaceOnUse" color-interpolation-filters="sRGB">
<feFlood flood-opacity="0" result="BackgroundImageFix"/>
<feBlend mode="normal" in="SourceGraphic" in2="BackgroundImageFix" result="shape"/>
<feColorMatrix in="SourceAlpha" type="matrix" values="0 0 0 0 0 0 0 0 0 0 0 0 0 0 0 0 0 0 127 0" result="hardAlpha"/>
<feOffset dy="1.13892"/>
<feGaussianBlur stdDeviation="1.13892"/>
<feComposite in2="hardAlpha" operator="arithmetic" k2="-1" k3="1"/>
<feColorMatrix type="matrix" values="0 0 0 0 0.541667 0 0 0 0 0.040625 0 0 0 0 0.142143 0 0 0 1 0"/>
<feBlend mode="normal" in2="shape" result="effect1_innerShadow_15_4633"/>
</filter>
<filter id="filter12_i_15_4633" x="70.2029" y="178.823" width="22.7539" height="24.4197" filterUnits="userSpaceOnUse" color-interpolation-filters="sRGB">
<feFlood flood-opacity="0" result="BackgroundImageFix"/>
<feBlend mode="normal" in="SourceGraphic" in2="BackgroundImageFix" result="shape"/>
<feColorMatrix in="SourceAlpha" type="matrix" values="0 0 0 0 0 0 0 0 0 0 0 0 0 0 0 0 0 0 127 0" result="hardAlpha"/>
<feOffset dy="1.13892"/>
<feGaussianBlur stdDeviation="1.13892"/>
<feComposite in2="hardAlpha" operator="arithmetic" k2="-1" k3="1"/>
<feColorMatrix type="matrix" values="0 0 0 0 0.541667 0 0 0 0 0.040625 0 0 0 0 0.142143 0 0 0 1 0"/>
<feBlend mode="normal" in2="shape" result="effect1_innerShadow_15_4633"/>
</filter>
<filter id="filter13_i_15_4633" x="206.536" y="84.4066" width="35.0544" height="33.8268" filterUnits="userSpaceOnUse" color-interpolation-filters="sRGB">
<feFlood flood-opacity="0" result="BackgroundImageFix"/>
<feBlend mode="normal" in="SourceGraphic" in2="BackgroundImageFix" result="shape"/>
<feColorMatrix in="SourceAlpha" type="matrix" values="0 0 0 0 0 0 0 0 0 0 0 0 0 0 0 0 0 0 127 0" result="hardAlpha"/>
<feOffset dy="1.13892"/>
<feGaussianBlur stdDeviation="1.13892"/>
<feComposite in2="hardAlpha" operator="arithmetic" k2="-1" k3="1"/>
<feColorMatrix type="matrix" values="0 0 0 0 0.541667 0 0 0 0 0.040625 0 0 0 0 0.142143 0 0 0 1 0"/>
<feBlend mode="normal" in2="shape" result="effect1_innerShadow_15_4633"/>
</filter>
<filter id="filter14_i_15_4633" x="213.586" y="89.4417" width="22.8479" height="23.8321" filterUnits="userSpaceOnUse" color-interpolation-filters="sRGB">
<feFlood flood-opacity="0" result="BackgroundImageFix"/>
<feBlend mode="normal" in="SourceGraphic" in2="BackgroundImageFix" result="shape"/>
<feColorMatrix in="SourceAlpha" type="matrix" values="0 0 0 0 0 0 0 0 0 0 0 0 0 0 0 0 0 0 127 0" result="hardAlpha"/>
<feOffset dy="1.13892"/>
<feGaussianBlur stdDeviation="1.13892"/>
<feComposite in2="hardAlpha" operator="arithmetic" k2="-1" k3="1"/>
<feColorMatrix type="matrix" values="0 0 0 0 0.541667 0 0 0 0 0.040625 0 0 0 0 0.142143 0 0 0 1 0"/>
<feBlend mode="normal" in2="shape" result="effect1_innerShadow_15_4633"/>
</filter>
<filter id="filter15_f_15_4633" x="-22.9116" y="45.2914" width="355.804" height="276.213" filterUnits="userSpaceOnUse" color-interpolation-filters="sRGB">
<feFlood flood-opacity="0" result="BackgroundImageFix"/>
<feBlend mode="normal" in="SourceGraphic" in2="BackgroundImageFix" result="shape"/>
<feGaussianBlur stdDeviation="9.325" result="effect1_foregroundBlur_15_4633"/>
</filter>
<filter id="filter16_f_15_4633" x="53.1557" y="43.1964" width="369.774" height="304.081" filterUnits="userSpaceOnUse" color-interpolation-filters="sRGB">
<feFlood flood-opacity="0" result="BackgroundImageFix"/>
<feBlend mode="normal" in="SourceGraphic" in2="BackgroundImageFix" result="shape"/>
<feGaussianBlur stdDeviation="13.9875" result="effect1_foregroundBlur_15_4633"/>
</filter>
<linearGradient id="paint0_linear_15_4633" x1="245.712" y1="132.038" x2="33.8792" y2="332.526" gradientUnits="userSpaceOnUse">
<stop stop-color="#F3164E"/>
<stop offset="1" stop-color="#8B0119"/>
</linearGradient>
<clipPath id="clip0_15_4633">
<rect x="85.4776" y="101.732" width="186.5" height="186.5" rx="93.25" transform="rotate(-5 85.4776 101.732)" fill="white"/>
</clipPath>
</defs>
</svg>
