<svg width="121" height="181" viewBox="0 0 121 181" fill="none" xmlns="http://www.w3.org/2000/svg">
<g opacity="0.7">
<g filter="url(#filter0_d_15_4646)">
<g clip-path="url(#clip0_15_4646)">
<rect x="-17.7963" y="48.5167" width="90.5" height="90.5" rx="45.25" transform="rotate(-4 -17.7963 48.5167)" fill="url(#paint0_linear_15_4646)"/>
<g opacity="0.5" filter="url(#filter1_i_15_4646)">
<path d="M28.2683 106.39C25.9499 107.754 23.9038 106.807 22.5037 104.428C21.1036 102.048 21.8481 99.0136 24.1666 97.6494C26.485 96.2852 29.2135 97.1278 30.6136 99.5073C32.0137 101.887 30.5868 105.026 28.2683 106.39Z" fill="#C0B1E2"/>
</g>
<g opacity="0.7" filter="url(#filter2_i_15_4646)">
<path d="M28.1966 104.499C26.7323 105.36 24.405 105.132 23.5434 103.667C22.6818 102.203 23.5278 99.6612 24.992 98.7996C26.4563 97.9381 28.4263 98.8231 29.2879 100.287C30.1495 101.752 29.6609 103.637 28.1966 104.499Z" fill="#A896D3"/>
</g>
<g opacity="0.5" filter="url(#filter3_i_15_4646)">
<path d="M37.8064 131.281C35.6718 132.537 31.813 130.598 30.557 128.463C29.301 126.328 30.5342 122.623 32.6688 121.367C34.8034 120.111 37.6753 121.401 38.9313 123.536C40.1873 125.67 39.941 130.025 37.8064 131.281Z" fill="#A896D3"/>
</g>
<g opacity="0.5" filter="url(#filter4_i_15_4646)">
<path d="M55.1722 79.5361C51.9601 83.015 49.5736 81.1227 46.0031 77.8261C42.4327 74.5294 40.5989 70.3756 43.811 66.8967C47.0232 63.4177 52.0497 63.4485 55.6201 66.7451C59.1906 70.0418 58.3843 76.0572 55.1722 79.5361Z" fill="#C0B1E2"/>
</g>
<g opacity="0.7" filter="url(#filter5_i_15_4646)">
<path d="M54.0885 76.3861C52.0598 78.5833 49.3993 77.891 47.2021 75.8623C45.0048 73.8336 43.7587 70.6117 45.7874 68.4145C47.8161 66.2173 51.5862 66.7056 53.7834 68.7344C55.9806 70.7631 56.1172 74.1888 54.0885 76.3861Z" fill="#C0B1E2"/>
</g>
<g opacity="0.5" filter="url(#filter6_i_15_4646)">
<path d="M61.9318 136.134C57.2865 136.772 56.6531 133.823 55.9984 129.056C55.3437 124.288 56.5563 119.959 61.2015 119.321C65.8468 118.683 69.6701 121.87 70.3248 126.638C70.9795 131.405 66.577 135.496 61.9318 136.134Z" fill="#E6D7FF"/>
</g>
<g opacity="0.7" filter="url(#filter7_i_15_4646)">
<path d="M63.0859 133.044C60.1521 133.447 58.5538 131.243 58.151 128.309C57.7481 125.375 58.8233 122.128 61.7571 121.725C64.691 121.322 67.2657 124.068 67.6686 127.002C68.0715 129.936 66.0198 132.641 63.0859 133.044Z" fill="#C0B1E2"/>
</g>
<g opacity="0.7" filter="url(#filter8_i_15_4646)">
<path d="M5.3994 118.73C4.42296 119.788 3.14241 119.455 2.08486 118.478C1.02731 117.502 0.427539 115.951 1.40398 114.893C2.38043 113.836 4.195 114.071 5.25255 115.047C6.3101 116.024 6.37585 117.673 5.3994 118.73Z" fill="#A896D3"/>
</g>
<g opacity="0.7" filter="url(#filter9_i_15_4646)">
<path d="M73.1651 95.0727C70.9528 96.1963 69.083 94.8898 67.9594 92.6775C66.8359 90.4651 66.7966 87.5992 69.0089 86.4756C71.2212 85.3521 74.0129 86.8202 75.1365 89.0325C76.2601 91.2448 75.3774 93.9491 73.1651 95.0727Z" fill="#E6D7FF"/>
</g>
<g opacity="0.7" filter="url(#filter10_i_15_4646)">
<path d="M76.7321 81.2152C74.5197 82.3387 72.65 81.0323 71.5264 78.8199C70.4028 76.6076 70.3635 73.7417 72.5758 72.6181C74.7882 71.4945 77.5799 72.9626 78.7034 75.175C79.827 77.3873 78.9444 80.0916 76.7321 81.2152Z" fill="#E6D7FF"/>
</g>
<g opacity="0.5" filter="url(#filter11_i_15_4646)">
<path d="M2.79874 83.8252C0.412562 87.3398 1.69578 90.6609 5.30285 93.1098C8.90992 95.5588 13.7684 94.695 16.1546 91.1804C18.5408 87.6658 17.4911 83.28 13.884 80.831C10.277 78.3821 5.18492 80.3106 2.79874 83.8252Z" fill="#C0B1E2"/>
</g>
<g opacity="0.7" filter="url(#filter12_i_15_4646)">
<path d="M5.77178 84.131C4.26472 86.3507 4.38766 90.0417 6.6074 91.5488C8.82713 93.0559 12.9192 91.9819 14.4262 89.7622C15.9333 87.5424 14.7395 84.3476 12.5197 82.8406C10.3 81.3335 7.27884 81.9112 5.77178 84.131Z" fill="#A896D3"/>
</g>
<g opacity="0.7" filter="url(#filter13_i_15_4646)">
<path d="M7.48925 68.4407C7.046 69.0936 7.08216 70.1792 7.73502 70.6224C8.38789 71.0657 9.59144 70.7498 10.0347 70.0969C10.4779 69.4441 10.1268 68.5044 9.47395 68.0612C8.82109 67.6179 7.93251 67.7878 7.48925 68.4407Z" fill="#C0B1E2"/>
</g>
<g opacity="0.7" filter="url(#filter14_i_15_4646)">
<path d="M70.0699 133.191C69.6266 133.844 69.6628 134.93 70.3157 135.373C70.9685 135.816 72.1721 135.5 72.6153 134.847C73.0586 134.194 72.7074 133.255 72.0546 132.812C71.4017 132.368 70.5131 132.538 70.0699 133.191Z" fill="#C0B1E2"/>
</g>
<g opacity="0.7" filter="url(#filter15_i_15_4646)">
<path d="M71.8166 114.925C71.3734 115.578 71.4096 116.663 72.0624 117.106C72.7153 117.55 73.9188 117.234 74.3621 116.581C74.8053 115.928 74.4542 114.988 73.8013 114.545C73.1485 114.102 72.2599 114.272 71.8166 114.925Z" fill="#C0B1E2"/>
</g>
<g opacity="0.7" filter="url(#filter16_i_15_4646)">
<path d="M10.0854 137.441C9.64213 138.094 9.67829 139.179 10.3312 139.623C10.984 140.066 12.1876 139.75 12.6308 139.097C13.0741 138.444 12.7229 137.505 12.0701 137.061C11.4172 136.618 10.5286 136.788 10.0854 137.441Z" fill="#A896D3"/>
</g>
<g opacity="0.8">
<g opacity="0.5" filter="url(#filter17_i_15_4646)">
<path d="M47.1513 94.1081C41.3089 97.4965 40.8562 103.139 44.3337 109.135C47.8113 115.131 55.3666 117.245 61.209 113.857C67.0514 110.468 68.5731 103.462 65.0955 97.4658C61.618 91.4697 52.9937 90.7197 47.1513 94.1081Z" fill="#E6D7FF"/>
</g>
<g opacity="0.7" filter="url(#filter18_i_15_4646)">
<path d="M51.1991 96.5967C47.5091 98.7368 45.1392 104.109 47.2792 107.799C49.4193 111.489 56.0216 112.773 59.7116 110.633C63.4015 108.493 63.8952 103.093 61.7551 99.4031C59.6151 95.7131 54.889 94.4567 51.1991 96.5967Z" fill="#C0B1E2"/>
</g>
<g opacity="0.7" filter="url(#filter19_i_15_4646)">
<path d="M50.7854 100.286C48.7285 101.478 47.4075 104.473 48.6004 106.53C49.7933 108.587 53.4737 109.303 55.5306 108.11C57.5874 106.917 57.8626 103.907 56.6697 101.85C55.4768 99.793 52.8423 99.0926 50.7854 100.286Z" fill="#A896D3"/>
</g>
<g opacity="0.7" filter="url(#filter20_i_15_4646)">
<path d="M41.5486 84.5232C40.2056 85.3021 39.343 87.2573 40.1219 88.6003C40.9008 89.9433 43.3038 90.4108 44.6468 89.6319C45.9898 88.853 46.1695 86.8876 45.3906 85.5446C44.6117 84.2016 42.8916 83.7443 41.5486 84.5232Z" fill="#C0B1E2"/>
</g>
</g>
<g opacity="0.8">
<g opacity="0.5" filter="url(#filter21_i_15_4646)">
<path d="M33.2063 42.6067C32.0579 35.4704 26.5927 32.8569 19.2686 34.0356C11.9446 35.2142 6.93822 41.9548 8.08668 49.0911C9.23514 56.2274 15.654 60.4316 22.9781 59.253C30.3021 58.0743 34.3548 49.7429 33.2063 42.6067Z" fill="#E6D7FF"/>
</g>
<g opacity="0.7" filter="url(#filter22_i_15_4646)">
<path d="M29.1689 45.6985C28.4435 41.1914 23.9829 36.7655 19.4758 37.4909C14.9686 38.2162 11.1564 44.3223 11.8818 48.8294C12.6071 53.3365 17.8142 55.8981 22.3214 55.1727C26.8285 54.4474 29.8942 50.2056 29.1689 45.6985Z" fill="#C0B1E2"/>
</g>
<g opacity="0.7" filter="url(#filter23_i_15_4646)">
<path d="M25.6411 43.8723C25.2368 41.3599 22.7503 38.8928 20.2379 39.2971C17.7255 39.7014 15.6004 43.1051 16.0048 45.6176C16.4091 48.13 19.3117 49.5578 21.8241 49.1535C24.3365 48.7492 26.0455 46.3847 25.6411 43.8723Z" fill="#A896D3"/>
</g>
</g>
<g opacity="0.8">
<g opacity="0.5" filter="url(#filter24_i_15_4646)">
<path d="M-1.72875 63.0633C-5.65514 61.8968 -8.33223 64.0457 -9.52939 68.0754C-10.7265 72.1052 -8.51405 76.3175 -4.58766 77.484C-0.66127 78.6504 3.06243 76.4052 4.25958 72.3755C5.45673 68.3458 2.19764 64.2297 -1.72875 63.0633Z" fill="#E6D7FF"/>
</g>
<g opacity="0.7" filter="url(#filter25_i_15_4646)">
<path d="M-1.14167 65.8845C-3.62149 65.1478 -6.97736 66.3386 -7.71407 68.8184C-8.45078 71.2982 -6.26901 74.7449 -3.78918 75.4816C-1.30935 76.2183 1.27782 74.1884 2.01453 71.7086C2.75124 69.2288 1.33816 66.6213 -1.14167 65.8845Z" fill="#C0B1E2"/>
</g>
</g>
<g opacity="0.5" filter="url(#filter26_i_15_4646)">
<path d="M42.2443 45.6895C39.6831 49.4618 41.0604 53.0265 44.9321 55.6551C48.8037 58.2837 54.0186 57.3565 56.5798 53.5841C59.141 49.8117 58.0144 45.1043 54.1427 42.4756C50.2711 39.847 44.8055 41.9171 42.2443 45.6895Z" fill="#C0B1E2"/>
</g>
<g opacity="0.7" filter="url(#filter27_i_15_4646)">
<path d="M45.4353 46.0176C43.8177 48.4002 43.9497 52.3619 46.3322 53.9795C48.7148 55.5972 53.107 54.4444 54.7246 52.0618C56.3422 49.6793 55.0608 46.2502 52.6782 44.6325C50.2957 43.0149 47.0529 43.6351 45.4353 46.0176Z" fill="#A896D3"/>
</g>
<circle cx="22.589" cy="111.444" r="1.09263" transform="rotate(-4 22.589 111.444)" fill="#A896D3"/>
<circle cx="20.3405" cy="79.2895" r="1.09263" transform="rotate(-4 20.3405 79.2895)" fill="#C0B1E2"/>
<circle cx="9.07817" cy="103.13" r="1.09263" transform="rotate(-4 9.07817 103.13)" fill="#A896D3"/>
<circle cx="17.7161" cy="73.0837" r="1.09263" transform="rotate(-4 17.7161 73.0837)" fill="#C0B1E2"/>
<circle cx="20.1501" cy="128.778" r="1.09263" transform="rotate(-4 20.1501 128.778)" fill="#A896D3"/>
<circle cx="51.5151" cy="133.517" r="1.09263" transform="rotate(-4 51.5151 133.517)" fill="#A896D3"/>
<circle cx="40.5265" cy="106.903" r="1.09263" transform="rotate(-4 40.5265 106.903)" fill="#C0B1E2"/>
<circle cx="32.2137" cy="65.6052" r="1.09263" transform="rotate(-4 32.2137 65.6052)" fill="#C0B1E2"/>
<circle cx="22.2791" cy="75.6854" r="1.09263" transform="rotate(-4 22.2791 75.6854)" fill="#C0B1E2"/>
<circle cx="-0.963391" cy="87.8986" r="1.09263" transform="rotate(-4 -0.963391 87.8986)" fill="#A896D3"/>
<circle cx="64.7436" cy="54.2438" r="1.09263" transform="rotate(-4 64.7436 54.2438)" fill="#A896D3"/>
<g filter="url(#filter28_f_15_4646)">
<path d="M15.1728 30.7513V30.7513C-14.7351 76.7137 19.3312 137.343 74.1431 135.703L91.717 135.178L-63.0393 145.337L15.1728 30.7513Z" fill="url(#paint1_linear_15_4646)" fill-opacity="0.4"/>
</g>
<g opacity="0.2" filter="url(#filter29_f_15_4646)">
<path d="M25.8493 154.871V154.871C67.0594 118.695 50.6341 51.1177 -2.58363 37.8927L-19.6465 33.6525L132.103 65.6674L25.8493 154.871Z" fill="white"/>
</g>
</g>
</g>
</g>
<defs>
<filter id="filter0_d_15_4646" x="-35.8963" y="24.7071" width="132.793" height="132.793" filterUnits="userSpaceOnUse" color-interpolation-filters="sRGB">
<feFlood flood-opacity="0" result="BackgroundImageFix"/>
<feColorMatrix in="SourceAlpha" type="matrix" values="0 0 0 0 0 0 0 0 0 0 0 0 0 0 0 0 0 0 127 0" result="hardAlpha"/>
<feMorphology radius="3.01667" operator="dilate" in="SourceAlpha" result="effect1_dropShadow_15_4646"/>
<feOffset dy="0.603333"/>
<feGaussianBlur stdDeviation="7.54167"/>
<feComposite in2="hardAlpha" operator="out"/>
<feColorMatrix type="matrix" values="0 0 0 0 0.651 0 0 0 0 0.561337 0 0 0 0 0.904167 0 0 0 0.3 0"/>
<feBlend mode="normal" in2="BackgroundImageFix" result="effect1_dropShadow_15_4646"/>
<feBlend mode="normal" in="SourceGraphic" in2="effect1_dropShadow_15_4646" result="shape"/>
</filter>
<filter id="filter1_i_15_4646" x="21.7969" y="96.9956" width="9.37061" height="10.5756" filterUnits="userSpaceOnUse" color-interpolation-filters="sRGB">
<feFlood flood-opacity="0" result="BackgroundImageFix"/>
<feBlend mode="normal" in="SourceGraphic" in2="BackgroundImageFix" result="shape"/>
<feColorMatrix in="SourceAlpha" type="matrix" values="0 0 0 0 0 0 0 0 0 0 0 0 0 0 0 0 0 0 127 0" result="hardAlpha"/>
<feOffset dy="0.552666"/>
<feGaussianBlur stdDeviation="0.552666"/>
<feComposite in2="hardAlpha" operator="arithmetic" k2="-1" k3="1"/>
<feColorMatrix type="matrix" values="0 0 0 0 0.356863 0 0 0 0 0.262745 0 0 0 0 0.623529 0 0 0 0.5 0"/>
<feBlend mode="normal" in2="shape" result="effect1_innerShadow_15_4646"/>
</filter>
<filter id="filter2_i_15_4646" x="23.1973" y="98.4608" width="6.51599" height="7.09266" filterUnits="userSpaceOnUse" color-interpolation-filters="sRGB">
<feFlood flood-opacity="0" result="BackgroundImageFix"/>
<feBlend mode="normal" in="SourceGraphic" in2="BackgroundImageFix" result="shape"/>
<feColorMatrix in="SourceAlpha" type="matrix" values="0 0 0 0 0 0 0 0 0 0 0 0 0 0 0 0 0 0 127 0" result="hardAlpha"/>
<feOffset dy="0.552666"/>
<feGaussianBlur stdDeviation="0.552666"/>
<feComposite in2="hardAlpha" operator="arithmetic" k2="-1" k3="1"/>
<feColorMatrix type="matrix" values="0 0 0 0 0.356863 0 0 0 0 0.262745 0 0 0 0 0.623529 0 0 0 0.5 0"/>
<feBlend mode="normal" in2="shape" result="effect1_innerShadow_15_4646"/>
</filter>
<filter id="filter3_i_15_4646" x="30.0524" y="120.873" width="9.64026" height="11.3582" filterUnits="userSpaceOnUse" color-interpolation-filters="sRGB">
<feFlood flood-opacity="0" result="BackgroundImageFix"/>
<feBlend mode="normal" in="SourceGraphic" in2="BackgroundImageFix" result="shape"/>
<feColorMatrix in="SourceAlpha" type="matrix" values="0 0 0 0 0 0 0 0 0 0 0 0 0 0 0 0 0 0 127 0" result="hardAlpha"/>
<feOffset dy="0.552666"/>
<feGaussianBlur stdDeviation="0.552666"/>
<feComposite in2="hardAlpha" operator="arithmetic" k2="-1" k3="1"/>
<feColorMatrix type="matrix" values="0 0 0 0 0.356863 0 0 0 0 0.262745 0 0 0 0 0.623529 0 0 0 0.5 0"/>
<feBlend mode="normal" in2="shape" result="effect1_innerShadow_15_4646"/>
</filter>
<filter id="filter4_i_15_4646" x="42.1494" y="64.2798" width="15.8118" height="17.6659" filterUnits="userSpaceOnUse" color-interpolation-filters="sRGB">
<feFlood flood-opacity="0" result="BackgroundImageFix"/>
<feBlend mode="normal" in="SourceGraphic" in2="BackgroundImageFix" result="shape"/>
<feColorMatrix in="SourceAlpha" type="matrix" values="0 0 0 0 0 0 0 0 0 0 0 0 0 0 0 0 0 0 127 0" result="hardAlpha"/>
<feOffset dy="0.552666"/>
<feGaussianBlur stdDeviation="0.552666"/>
<feComposite in2="hardAlpha" operator="arithmetic" k2="-1" k3="1"/>
<feColorMatrix type="matrix" values="0 0 0 0 0.356863 0 0 0 0 0.262745 0 0 0 0 0.623529 0 0 0 0.5 0"/>
<feBlend mode="normal" in2="shape" result="effect1_innerShadow_15_4646"/>
</filter>
<filter id="filter5_i_15_4646" x="44.761" y="66.9754" width="10.7639" height="11.3185" filterUnits="userSpaceOnUse" color-interpolation-filters="sRGB">
<feFlood flood-opacity="0" result="BackgroundImageFix"/>
<feBlend mode="normal" in="SourceGraphic" in2="BackgroundImageFix" result="shape"/>
<feColorMatrix in="SourceAlpha" type="matrix" values="0 0 0 0 0 0 0 0 0 0 0 0 0 0 0 0 0 0 127 0" result="hardAlpha"/>
<feOffset dy="0.552666"/>
<feGaussianBlur stdDeviation="0.552666"/>
<feComposite in2="hardAlpha" operator="arithmetic" k2="-1" k3="1"/>
<feColorMatrix type="matrix" values="0 0 0 0 0.356863 0 0 0 0 0.262745 0 0 0 0 0.623529 0 0 0 0.5 0"/>
<feBlend mode="normal" in2="shape" result="effect1_innerShadow_15_4646"/>
</filter>
<filter id="filter6_i_15_4646" x="55.8339" y="119.24" width="14.5559" height="17.5335" filterUnits="userSpaceOnUse" color-interpolation-filters="sRGB">
<feFlood flood-opacity="0" result="BackgroundImageFix"/>
<feBlend mode="normal" in="SourceGraphic" in2="BackgroundImageFix" result="shape"/>
<feColorMatrix in="SourceAlpha" type="matrix" values="0 0 0 0 0 0 0 0 0 0 0 0 0 0 0 0 0 0 127 0" result="hardAlpha"/>
<feOffset dy="0.552666"/>
<feGaussianBlur stdDeviation="0.552666"/>
<feComposite in2="hardAlpha" operator="arithmetic" k2="-1" k3="1"/>
<feColorMatrix type="matrix" values="0 0 0 0 0.356863 0 0 0 0 0.262745 0 0 0 0 0.623529 0 0 0 0.5 0"/>
<feBlend mode="normal" in2="shape" result="effect1_innerShadow_15_4646"/>
</filter>
<filter id="filter7_i_15_4646" x="58.0695" y="121.686" width="9.6496" height="11.9585" filterUnits="userSpaceOnUse" color-interpolation-filters="sRGB">
<feFlood flood-opacity="0" result="BackgroundImageFix"/>
<feBlend mode="normal" in="SourceGraphic" in2="BackgroundImageFix" result="shape"/>
<feColorMatrix in="SourceAlpha" type="matrix" values="0 0 0 0 0 0 0 0 0 0 0 0 0 0 0 0 0 0 127 0" result="hardAlpha"/>
<feOffset dy="0.552666"/>
<feGaussianBlur stdDeviation="0.552666"/>
<feComposite in2="hardAlpha" operator="arithmetic" k2="-1" k3="1"/>
<feColorMatrix type="matrix" values="0 0 0 0 0.356863 0 0 0 0 0.262745 0 0 0 0 0.623529 0 0 0 0.5 0"/>
<feBlend mode="normal" in2="shape" result="effect1_innerShadow_15_4646"/>
</filter>
<filter id="filter8_i_15_4646" x="0.909973" y="114.201" width="5.18085" height="5.7344" filterUnits="userSpaceOnUse" color-interpolation-filters="sRGB">
<feFlood flood-opacity="0" result="BackgroundImageFix"/>
<feBlend mode="normal" in="SourceGraphic" in2="BackgroundImageFix" result="shape"/>
<feColorMatrix in="SourceAlpha" type="matrix" values="0 0 0 0 0 0 0 0 0 0 0 0 0 0 0 0 0 0 127 0" result="hardAlpha"/>
<feOffset dy="0.552666"/>
<feGaussianBlur stdDeviation="0.552666"/>
<feComposite in2="hardAlpha" operator="arithmetic" k2="-1" k3="1"/>
<feColorMatrix type="matrix" values="0 0 0 0 0.356863 0 0 0 0 0.262745 0 0 0 0 0.623529 0 0 0 0.5 0"/>
<feBlend mode="normal" in2="shape" result="effect1_innerShadow_15_4646"/>
</filter>
<filter id="filter9_i_15_4646" x="67.204" y="86.0889" width="8.42047" height="9.94735" filterUnits="userSpaceOnUse" color-interpolation-filters="sRGB">
<feFlood flood-opacity="0" result="BackgroundImageFix"/>
<feBlend mode="normal" in="SourceGraphic" in2="BackgroundImageFix" result="shape"/>
<feColorMatrix in="SourceAlpha" type="matrix" values="0 0 0 0 0 0 0 0 0 0 0 0 0 0 0 0 0 0 127 0" result="hardAlpha"/>
<feOffset dy="0.552666"/>
<feGaussianBlur stdDeviation="0.552666"/>
<feComposite in2="hardAlpha" operator="arithmetic" k2="-1" k3="1"/>
<feColorMatrix type="matrix" values="0 0 0 0 0.356863 0 0 0 0 0.262745 0 0 0 0 0.623529 0 0 0 0.5 0"/>
<feBlend mode="normal" in2="shape" result="effect1_innerShadow_15_4646"/>
</filter>
<filter id="filter10_i_15_4646" x="70.7709" y="72.2313" width="8.42047" height="9.94735" filterUnits="userSpaceOnUse" color-interpolation-filters="sRGB">
<feFlood flood-opacity="0" result="BackgroundImageFix"/>
<feBlend mode="normal" in="SourceGraphic" in2="BackgroundImageFix" result="shape"/>
<feColorMatrix in="SourceAlpha" type="matrix" values="0 0 0 0 0 0 0 0 0 0 0 0 0 0 0 0 0 0 127 0" result="hardAlpha"/>
<feOffset dy="0.552666"/>
<feGaussianBlur stdDeviation="0.552666"/>
<feComposite in2="hardAlpha" operator="arithmetic" k2="-1" k3="1"/>
<feColorMatrix type="matrix" values="0 0 0 0 0.356863 0 0 0 0 0.262745 0 0 0 0 0.623529 0 0 0 0.5 0"/>
<feBlend mode="normal" in2="shape" result="effect1_innerShadow_15_4646"/>
</filter>
<filter id="filter11_i_15_4646" x="1.58398" y="79.7324" width="15.853" height="15.3233" filterUnits="userSpaceOnUse" color-interpolation-filters="sRGB">
<feFlood flood-opacity="0" result="BackgroundImageFix"/>
<feBlend mode="normal" in="SourceGraphic" in2="BackgroundImageFix" result="shape"/>
<feColorMatrix in="SourceAlpha" type="matrix" values="0 0 0 0 0 0 0 0 0 0 0 0 0 0 0 0 0 0 127 0" result="hardAlpha"/>
<feOffset dy="0.552666"/>
<feGaussianBlur stdDeviation="0.552666"/>
<feComposite in2="hardAlpha" operator="arithmetic" k2="-1" k3="1"/>
<feColorMatrix type="matrix" values="0 0 0 0 0.356863 0 0 0 0 0.262745 0 0 0 0 0.623529 0 0 0 0.5 0"/>
<feBlend mode="normal" in2="shape" result="effect1_innerShadow_15_4646"/>
</filter>
<filter id="filter12_i_15_4646" x="4.7688" y="82.0013" width="10.3303" height="10.8011" filterUnits="userSpaceOnUse" color-interpolation-filters="sRGB">
<feFlood flood-opacity="0" result="BackgroundImageFix"/>
<feBlend mode="normal" in="SourceGraphic" in2="BackgroundImageFix" result="shape"/>
<feColorMatrix in="SourceAlpha" type="matrix" values="0 0 0 0 0 0 0 0 0 0 0 0 0 0 0 0 0 0 127 0" result="hardAlpha"/>
<feOffset dy="0.552666"/>
<feGaussianBlur stdDeviation="0.552666"/>
<feComposite in2="hardAlpha" operator="arithmetic" k2="-1" k3="1"/>
<feColorMatrix type="matrix" values="0 0 0 0 0.356863 0 0 0 0 0.262745 0 0 0 0 0.623529 0 0 0 0.5 0"/>
<feBlend mode="normal" in2="shape" result="effect1_innerShadow_15_4646"/>
</filter>
<filter id="filter13_i_15_4646" x="7.19427" y="67.8143" width="3.03833" height="3.56692" filterUnits="userSpaceOnUse" color-interpolation-filters="sRGB">
<feFlood flood-opacity="0" result="BackgroundImageFix"/>
<feBlend mode="normal" in="SourceGraphic" in2="BackgroundImageFix" result="shape"/>
<feColorMatrix in="SourceAlpha" type="matrix" values="0 0 0 0 0 0 0 0 0 0 0 0 0 0 0 0 0 0 127 0" result="hardAlpha"/>
<feOffset dy="0.552666"/>
<feGaussianBlur stdDeviation="0.552666"/>
<feComposite in2="hardAlpha" operator="arithmetic" k2="-1" k3="1"/>
<feColorMatrix type="matrix" values="0 0 0 0 0.356863 0 0 0 0 0.262745 0 0 0 0 0.623529 0 0 0 0.5 0"/>
<feBlend mode="normal" in2="shape" result="effect1_innerShadow_15_4646"/>
</filter>
<filter id="filter14_i_15_4646" x="69.7749" y="132.565" width="3.03833" height="3.56692" filterUnits="userSpaceOnUse" color-interpolation-filters="sRGB">
<feFlood flood-opacity="0" result="BackgroundImageFix"/>
<feBlend mode="normal" in="SourceGraphic" in2="BackgroundImageFix" result="shape"/>
<feColorMatrix in="SourceAlpha" type="matrix" values="0 0 0 0 0 0 0 0 0 0 0 0 0 0 0 0 0 0 127 0" result="hardAlpha"/>
<feOffset dy="0.552666"/>
<feGaussianBlur stdDeviation="0.552666"/>
<feComposite in2="hardAlpha" operator="arithmetic" k2="-1" k3="1"/>
<feColorMatrix type="matrix" values="0 0 0 0 0.356863 0 0 0 0 0.262745 0 0 0 0 0.623529 0 0 0 0.5 0"/>
<feBlend mode="normal" in2="shape" result="effect1_innerShadow_15_4646"/>
</filter>
<filter id="filter15_i_15_4646" x="71.5217" y="114.298" width="3.03833" height="3.56692" filterUnits="userSpaceOnUse" color-interpolation-filters="sRGB">
<feFlood flood-opacity="0" result="BackgroundImageFix"/>
<feBlend mode="normal" in="SourceGraphic" in2="BackgroundImageFix" result="shape"/>
<feColorMatrix in="SourceAlpha" type="matrix" values="0 0 0 0 0 0 0 0 0 0 0 0 0 0 0 0 0 0 127 0" result="hardAlpha"/>
<feOffset dy="0.552666"/>
<feGaussianBlur stdDeviation="0.552666"/>
<feComposite in2="hardAlpha" operator="arithmetic" k2="-1" k3="1"/>
<feColorMatrix type="matrix" values="0 0 0 0 0.356863 0 0 0 0 0.262745 0 0 0 0 0.623529 0 0 0 0.5 0"/>
<feBlend mode="normal" in2="shape" result="effect1_innerShadow_15_4646"/>
</filter>
<filter id="filter16_i_15_4646" x="9.79041" y="136.815" width="3.03833" height="3.56692" filterUnits="userSpaceOnUse" color-interpolation-filters="sRGB">
<feFlood flood-opacity="0" result="BackgroundImageFix"/>
<feBlend mode="normal" in="SourceGraphic" in2="BackgroundImageFix" result="shape"/>
<feColorMatrix in="SourceAlpha" type="matrix" values="0 0 0 0 0 0 0 0 0 0 0 0 0 0 0 0 0 0 127 0" result="hardAlpha"/>
<feOffset dy="0.552666"/>
<feGaussianBlur stdDeviation="0.552666"/>
<feComposite in2="hardAlpha" operator="arithmetic" k2="-1" k3="1"/>
<feColorMatrix type="matrix" values="0 0 0 0 0.356863 0 0 0 0 0.262745 0 0 0 0 0.623529 0 0 0 0.5 0"/>
<feBlend mode="normal" in2="shape" result="effect1_innerShadow_15_4646"/>
</filter>
<filter id="filter17_i_15_4646" x="42.1389" y="92.0977" width="24.8005" height="23.9274" filterUnits="userSpaceOnUse" color-interpolation-filters="sRGB">
<feFlood flood-opacity="0" result="BackgroundImageFix"/>
<feBlend mode="normal" in="SourceGraphic" in2="BackgroundImageFix" result="shape"/>
<feColorMatrix in="SourceAlpha" type="matrix" values="0 0 0 0 0 0 0 0 0 0 0 0 0 0 0 0 0 0 127 0" result="hardAlpha"/>
<feOffset dy="0.552666"/>
<feGaussianBlur stdDeviation="0.552666"/>
<feComposite in2="hardAlpha" operator="arithmetic" k2="-1" k3="1"/>
<feColorMatrix type="matrix" values="0 0 0 0 0.356863 0 0 0 0 0.262745 0 0 0 0 0.623529 0 0 0 0.5 0"/>
<feBlend mode="normal" in2="shape" result="effect1_innerShadow_15_4646"/>
</filter>
<filter id="filter18_i_15_4646" x="46.4685" y="95.5531" width="16.5554" height="16.6689" filterUnits="userSpaceOnUse" color-interpolation-filters="sRGB">
<feFlood flood-opacity="0" result="BackgroundImageFix"/>
<feBlend mode="normal" in="SourceGraphic" in2="BackgroundImageFix" result="shape"/>
<feColorMatrix in="SourceAlpha" type="matrix" values="0 0 0 0 0 0 0 0 0 0 0 0 0 0 0 0 0 0 127 0" result="hardAlpha"/>
<feOffset dy="0.552666"/>
<feGaussianBlur stdDeviation="0.552666"/>
<feComposite in2="hardAlpha" operator="arithmetic" k2="-1" k3="1"/>
<feColorMatrix type="matrix" values="0 0 0 0 0.356863 0 0 0 0 0.262745 0 0 0 0 0.623529 0 0 0 0.5 0"/>
<feBlend mode="normal" in2="shape" result="effect1_innerShadow_15_4646"/>
</filter>
<filter id="filter19_i_15_4646" x="48.1485" y="99.7038" width="9.22839" height="9.53634" filterUnits="userSpaceOnUse" color-interpolation-filters="sRGB">
<feFlood flood-opacity="0" result="BackgroundImageFix"/>
<feBlend mode="normal" in="SourceGraphic" in2="BackgroundImageFix" result="shape"/>
<feColorMatrix in="SourceAlpha" type="matrix" values="0 0 0 0 0 0 0 0 0 0 0 0 0 0 0 0 0 0 127 0" result="hardAlpha"/>
<feOffset dy="0.552666"/>
<feGaussianBlur stdDeviation="0.552666"/>
<feComposite in2="hardAlpha" operator="arithmetic" k2="-1" k3="1"/>
<feColorMatrix type="matrix" values="0 0 0 0 0.356863 0 0 0 0 0.262745 0 0 0 0 0.623529 0 0 0 0.5 0"/>
<feBlend mode="normal" in2="shape" result="effect1_innerShadow_15_4646"/>
</filter>
<filter id="filter20_i_15_4646" x="39.8268" y="84.1434" width="6.02551" height="6.41842" filterUnits="userSpaceOnUse" color-interpolation-filters="sRGB">
<feFlood flood-opacity="0" result="BackgroundImageFix"/>
<feBlend mode="normal" in="SourceGraphic" in2="BackgroundImageFix" result="shape"/>
<feColorMatrix in="SourceAlpha" type="matrix" values="0 0 0 0 0 0 0 0 0 0 0 0 0 0 0 0 0 0 127 0" result="hardAlpha"/>
<feOffset dy="0.552666"/>
<feGaussianBlur stdDeviation="0.552666"/>
<feComposite in2="hardAlpha" operator="arithmetic" k2="-1" k3="1"/>
<feColorMatrix type="matrix" values="0 0 0 0 0.356863 0 0 0 0 0.262745 0 0 0 0 0.623529 0 0 0 0.5 0"/>
<feBlend mode="normal" in2="shape" result="effect1_innerShadow_15_4646"/>
</filter>
<filter id="filter21_i_15_4646" x="7.92267" y="33.7635" width="25.4766" height="26.2391" filterUnits="userSpaceOnUse" color-interpolation-filters="sRGB">
<feFlood flood-opacity="0" result="BackgroundImageFix"/>
<feBlend mode="normal" in="SourceGraphic" in2="BackgroundImageFix" result="shape"/>
<feColorMatrix in="SourceAlpha" type="matrix" values="0 0 0 0 0 0 0 0 0 0 0 0 0 0 0 0 0 0 127 0" result="hardAlpha"/>
<feOffset dy="0.552666"/>
<feGaussianBlur stdDeviation="0.552666"/>
<feComposite in2="hardAlpha" operator="arithmetic" k2="-1" k3="1"/>
<feColorMatrix type="matrix" values="0 0 0 0 0.356863 0 0 0 0 0.262745 0 0 0 0 0.623529 0 0 0 0.5 0"/>
<feBlend mode="normal" in2="shape" result="effect1_innerShadow_15_4646"/>
</filter>
<filter id="filter22_i_15_4646" x="11.7927" y="37.4124" width="17.4824" height="18.4349" filterUnits="userSpaceOnUse" color-interpolation-filters="sRGB">
<feFlood flood-opacity="0" result="BackgroundImageFix"/>
<feBlend mode="normal" in="SourceGraphic" in2="BackgroundImageFix" result="shape"/>
<feColorMatrix in="SourceAlpha" type="matrix" values="0 0 0 0 0 0 0 0 0 0 0 0 0 0 0 0 0 0 127 0" result="hardAlpha"/>
<feOffset dy="0.552666"/>
<feGaussianBlur stdDeviation="0.552666"/>
<feComposite in2="hardAlpha" operator="arithmetic" k2="-1" k3="1"/>
<feColorMatrix type="matrix" values="0 0 0 0 0.356863 0 0 0 0 0.262745 0 0 0 0 0.623529 0 0 0 0.5 0"/>
<feBlend mode="normal" in2="shape" result="effect1_innerShadow_15_4646"/>
</filter>
<filter id="filter23_i_15_4646" x="15.9551" y="39.2534" width="9.74518" height="10.5208" filterUnits="userSpaceOnUse" color-interpolation-filters="sRGB">
<feFlood flood-opacity="0" result="BackgroundImageFix"/>
<feBlend mode="normal" in="SourceGraphic" in2="BackgroundImageFix" result="shape"/>
<feColorMatrix in="SourceAlpha" type="matrix" values="0 0 0 0 0 0 0 0 0 0 0 0 0 0 0 0 0 0 127 0" result="hardAlpha"/>
<feOffset dy="0.552666"/>
<feGaussianBlur stdDeviation="0.552666"/>
<feComposite in2="hardAlpha" operator="arithmetic" k2="-1" k3="1"/>
<feColorMatrix type="matrix" values="0 0 0 0 0.356863 0 0 0 0 0.262745 0 0 0 0 0.623529 0 0 0 0.5 0"/>
<feBlend mode="normal" in2="shape" result="effect1_innerShadow_15_4646"/>
</filter>
<filter id="filter24_i_15_4646" x="-9.85449" y="62.7472" width="14.3654" height="15.5972" filterUnits="userSpaceOnUse" color-interpolation-filters="sRGB">
<feFlood flood-opacity="0" result="BackgroundImageFix"/>
<feBlend mode="normal" in="SourceGraphic" in2="BackgroundImageFix" result="shape"/>
<feColorMatrix in="SourceAlpha" type="matrix" values="0 0 0 0 0 0 0 0 0 0 0 0 0 0 0 0 0 0 127 0" result="hardAlpha"/>
<feOffset dy="0.552666"/>
<feGaussianBlur stdDeviation="0.552666"/>
<feComposite in2="hardAlpha" operator="arithmetic" k2="-1" k3="1"/>
<feColorMatrix type="matrix" values="0 0 0 0 0.356863 0 0 0 0 0.262745 0 0 0 0 0.623529 0 0 0 0.5 0"/>
<feBlend mode="normal" in2="shape" result="effect1_innerShadow_15_4646"/>
</filter>
<filter id="filter25_i_15_4646" x="-7.85931" y="65.6687" width="10.069" height="10.5187" filterUnits="userSpaceOnUse" color-interpolation-filters="sRGB">
<feFlood flood-opacity="0" result="BackgroundImageFix"/>
<feBlend mode="normal" in="SourceGraphic" in2="BackgroundImageFix" result="shape"/>
<feColorMatrix in="SourceAlpha" type="matrix" values="0 0 0 0 0 0 0 0 0 0 0 0 0 0 0 0 0 0 127 0" result="hardAlpha"/>
<feOffset dy="0.552666"/>
<feGaussianBlur stdDeviation="0.552666"/>
<feComposite in2="hardAlpha" operator="arithmetic" k2="-1" k3="1"/>
<feColorMatrix type="matrix" values="0 0 0 0 0.356863 0 0 0 0 0.262745 0 0 0 0 0.623529 0 0 0 0.5 0"/>
<feBlend mode="normal" in2="shape" result="effect1_innerShadow_15_4646"/>
</filter>
<filter id="filter26_i_15_4646" x="40.9404" y="41.2964" width="17.0158" height="16.4068" filterUnits="userSpaceOnUse" color-interpolation-filters="sRGB">
<feFlood flood-opacity="0" result="BackgroundImageFix"/>
<feBlend mode="normal" in="SourceGraphic" in2="BackgroundImageFix" result="shape"/>
<feColorMatrix in="SourceAlpha" type="matrix" values="0 0 0 0 0 0 0 0 0 0 0 0 0 0 0 0 0 0 127 0" result="hardAlpha"/>
<feOffset dy="0.552666"/>
<feGaussianBlur stdDeviation="0.552666"/>
<feComposite in2="hardAlpha" operator="arithmetic" k2="-1" k3="1"/>
<feColorMatrix type="matrix" values="0 0 0 0 0.356863 0 0 0 0 0.262745 0 0 0 0 0.623529 0 0 0 0.5 0"/>
<feBlend mode="normal" in2="shape" result="effect1_innerShadow_15_4646"/>
</filter>
<filter id="filter27_i_15_4646" x="44.3588" y="43.7317" width="11.088" height="11.5528" filterUnits="userSpaceOnUse" color-interpolation-filters="sRGB">
<feFlood flood-opacity="0" result="BackgroundImageFix"/>
<feBlend mode="normal" in="SourceGraphic" in2="BackgroundImageFix" result="shape"/>
<feColorMatrix in="SourceAlpha" type="matrix" values="0 0 0 0 0 0 0 0 0 0 0 0 0 0 0 0 0 0 127 0" result="hardAlpha"/>
<feOffset dy="0.552666"/>
<feGaussianBlur stdDeviation="0.552666"/>
<feComposite in2="hardAlpha" operator="arithmetic" k2="-1" k3="1"/>
<feColorMatrix type="matrix" values="0 0 0 0 0.356863 0 0 0 0 0.262745 0 0 0 0 0.623529 0 0 0 0.5 0"/>
<feBlend mode="normal" in2="shape" result="effect1_innerShadow_15_4646"/>
</filter>
<filter id="filter28_f_15_4646" x="-69.0726" y="24.7179" width="166.823" height="126.653" filterUnits="userSpaceOnUse" color-interpolation-filters="sRGB">
<feFlood flood-opacity="0" result="BackgroundImageFix"/>
<feBlend mode="normal" in="SourceGraphic" in2="BackgroundImageFix" result="shape"/>
<feGaussianBlur stdDeviation="3.01667" result="effect1_foregroundBlur_15_4646"/>
</filter>
<filter id="filter29_f_15_4646" x="-27.1882" y="26.1108" width="166.832" height="136.302" filterUnits="userSpaceOnUse" color-interpolation-filters="sRGB">
<feFlood flood-opacity="0" result="BackgroundImageFix"/>
<feBlend mode="normal" in="SourceGraphic" in2="BackgroundImageFix" result="shape"/>
<feGaussianBlur stdDeviation="3.77083" result="effect1_foregroundBlur_15_4646"/>
</filter>
<linearGradient id="paint0_linear_15_4646" x1="59.9583" y1="63.223" x2="-42.8346" y2="160.51" gradientUnits="userSpaceOnUse">
<stop stop-color="#E2D8FE"/>
<stop offset="1" stop-color="#836EBE"/>
</linearGradient>
<linearGradient id="paint1_linear_15_4646" x1="-7.56232" y1="107.49" x2="34.0193" y2="92.9013" gradientUnits="userSpaceOnUse">
<stop stop-color="#705EA9"/>
<stop offset="1" stop-color="#C4B7EA"/>
</linearGradient>
<clipPath id="clip0_15_4646">
<rect x="-17.7963" y="48.5167" width="90.5" height="90.5" rx="45.25" transform="rotate(-4 -17.7963 48.5167)" fill="white"/>
</clipPath>
</defs>
</svg>
