<svg width="146" height="184" viewBox="0 0 146 184" fill="none" xmlns="http://www.w3.org/2000/svg">
<g filter="url(#filter0_d_15_4652)">
<g clip-path="url(#clip0_15_4652)">
<rect x="40.0457" y="52.8496" width="92" height="92" rx="46" transform="rotate(-8 40.0457 52.8496)" fill="url(#paint0_linear_15_4652)"/>
<g filter="url(#filter1_f_15_4652)">
<path opacity="0.8" d="M9.77234 115.789L39.2479 101.599C47.7921 97.4856 57.41 96.1519 66.7511 97.7849L84.1714 100.83C93.4578 102.454 103.019 101.145 111.528 97.0867L128.622 88.933C137.079 84.8987 146.578 83.581 155.814 85.1609L173.864 88.2484C183.211 89.8472 192.825 88.4782 201.354 84.3337L217.629 76.4251C226.209 72.2557 235.885 70.8959 245.282 72.5387L263.016 75.6391C272.413 77.2819 282.089 75.9221 290.669 71.7528L306.862 63.8842C315.442 59.7149 325.118 58.355 334.515 59.9979L366.703 65.6253" stroke="#D66C14" stroke-width="4.90667"/>
<path opacity="0.5" d="M-5.63937 133.095L23.8361 118.905C32.3803 114.792 41.9983 113.458 51.3394 115.091L68.7597 118.137C78.0461 119.76 87.6075 118.452 96.1163 114.393L113.21 106.239C121.667 102.205 131.166 100.887 140.403 102.467L158.453 105.555C167.8 107.153 177.413 105.784 185.942 101.64L202.217 93.7313C210.797 89.5619 220.473 88.2021 229.87 89.8449L247.604 92.9453C257.001 94.5882 266.677 93.2283 275.257 89.059L291.45 81.1905C300.03 77.0211 309.706 75.6613 319.103 77.3041L351.292 82.9315" stroke="#D66C14" stroke-width="3.68"/>
<path d="M4.53837 122.099L34.0139 107.909C42.5581 103.795 52.1761 102.462 61.5171 104.095L78.9374 107.14C88.2238 108.764 97.7853 107.455 106.294 103.397L123.388 95.2428C131.845 91.2085 141.344 89.8908 150.58 91.4707L168.631 94.5582C177.978 96.1571 187.591 94.7881 196.12 90.6435L212.395 82.7349C220.975 78.5656 230.651 77.2057 240.048 78.8486L257.782 81.9489C267.179 83.5918 276.855 82.2319 285.435 78.0626L301.628 70.1941C310.208 66.0247 319.884 64.6649 329.281 66.3077L361.47 71.9351" stroke="#D66C14" stroke-width="2.45333"/>
<path d="M-0.636896 125.923L28.8386 111.733C37.3828 107.62 47.0008 106.286 56.3419 107.919L73.7622 110.964C83.0485 112.588 92.61 111.279 101.119 107.221L118.212 99.0669C126.67 95.0326 136.169 93.715 145.405 95.2949L163.455 98.3824C172.802 99.9812 182.415 98.6122 190.944 94.4677L207.22 86.5591C215.8 82.3897 225.475 81.0299 234.872 82.6727L252.607 85.7731C262.004 87.4159 271.68 86.0561 280.26 81.8867L296.452 74.0182C305.033 69.8489 314.708 68.489 324.105 70.1318L356.294 75.7593" stroke="#D66C14" stroke-width="1.22667"/>
<path d="M1.26893 127.119L30.7444 112.93C39.2886 108.816 48.9066 107.483 58.2477 109.116L75.668 112.161C84.9544 113.785 94.5158 112.476 103.025 108.417L120.118 100.264C128.576 96.2294 138.075 94.9117 147.311 96.4916L165.361 99.5791C174.708 101.178 184.321 99.809 192.85 95.6644L209.125 87.7558C217.706 83.5865 227.381 82.2266 236.778 83.8694L254.513 86.9698C263.91 88.6127 273.585 87.2528 282.165 83.0835L298.358 75.215C306.938 71.0456 316.614 69.6858 326.011 71.3286L358.2 76.956" stroke="#D66C14" stroke-width="0.613333"/>
<path d="M-2.44482 129.4L27.0307 115.21C35.5749 111.097 45.1929 109.763 54.5339 111.396L71.9542 114.442C81.2406 116.065 90.8021 114.757 99.3109 110.698L116.404 102.544C124.862 98.5101 134.361 97.1925 143.597 98.7724L161.647 101.86C170.994 103.459 180.607 102.09 189.136 97.9452L205.412 90.0366C213.992 85.8672 223.668 84.5074 233.065 86.1502L250.799 89.2506C260.196 90.8934 269.872 89.5336 278.452 85.3642L294.644 77.4957C303.225 73.3264 312.9 71.9665 322.297 73.6093L354.486 79.2368" stroke="#D66C14" stroke-width="0.613333"/>
<path d="M7.60056 143.137L38.8538 128.436C47.1811 124.519 56.5025 123.226 65.5816 124.729L85.2534 127.984C94.2793 129.477 103.546 128.208 111.838 124.343L131.076 115.376C139.318 111.534 148.524 110.257 157.5 111.709L177.819 114.997C186.903 116.467 196.22 115.14 204.533 111.194L222.937 102.457C231.301 98.4862 240.678 97.1683 249.812 98.6797L269.823 101.991C278.957 103.502 288.334 102.185 296.698 98.2141L315.021 89.5151C323.384 85.5447 332.762 84.2268 341.896 85.7382L375.936 91.3709" stroke="#D66C14" stroke-width="0.306667"/>
<path d="M1.4401 146.27L32.6933 131.569C41.0207 127.652 50.342 126.359 59.4212 127.861L79.0929 131.116C88.1188 132.61 97.3854 131.341 105.677 127.476L124.915 118.509C133.157 114.667 142.363 113.389 151.34 114.842L171.659 118.13C180.743 119.6 190.06 118.273 198.373 114.326L216.777 105.589C225.14 101.619 234.518 100.301 243.651 101.812L263.663 105.124C272.796 106.635 282.174 105.317 290.537 101.347L308.861 92.6478C317.224 88.6774 326.601 87.3595 335.735 88.8708L369.775 94.5036" stroke="#D66C14" stroke-width="0.306667"/>
<path d="M8.61921 147.417L39.8724 132.716C48.1998 128.799 57.5211 127.506 66.6003 129.008L86.272 132.263C95.2979 133.757 104.564 132.488 112.856 128.623L132.094 119.655C140.336 115.814 149.542 114.536 158.519 115.989L178.838 119.276C187.922 120.746 197.239 119.42 205.552 115.473L223.956 106.736C232.319 102.766 241.697 101.448 250.83 102.959L270.842 106.271C279.976 107.782 289.353 106.464 297.716 102.494L316.04 93.7946C324.403 89.8242 333.781 88.5062 342.914 90.0176L376.955 95.6504" stroke="#D66C14" stroke-width="1.22667"/>
<path opacity="0.8" d="M5.79572 149.362L37.0489 134.661C45.3763 130.744 54.6977 129.451 63.7768 130.953L83.4486 134.208C92.4744 135.702 101.741 134.433 110.033 130.568L129.271 121.601C137.513 117.759 146.719 116.481 155.696 117.934L176.014 121.222C185.099 122.692 194.415 121.365 202.729 117.418L221.133 108.681C229.496 104.711 238.873 103.393 248.007 104.904L268.018 108.216C277.152 109.727 286.53 108.409 294.893 104.439L313.216 95.7398C321.58 91.7694 330.957 90.4515 340.091 91.9628L374.131 97.5956" stroke="#D66C14" stroke-width="2.45333"/>
<path d="M6.12522 153.97L37.3784 139.269C45.7058 135.352 55.0272 134.059 64.1063 135.562L83.7781 138.817C92.8039 140.31 102.07 139.041 110.363 135.176L129.6 126.209C137.842 122.367 147.048 121.09 156.025 122.542L176.344 125.83C185.428 127.3 194.745 125.973 203.058 122.027L221.462 113.29C229.825 109.319 239.203 108.001 248.336 109.513L268.348 112.824C277.482 114.335 286.859 113.017 295.222 109.047L313.546 100.348C321.909 96.3776 331.287 95.0597 340.42 96.5711L374.461 102.204" stroke="#D66C14" stroke-width="0.613333"/>
<path d="M4.07963 113.027L33.5551 98.8376C42.0993 94.7244 51.7173 93.3906 61.0584 95.0237L78.4787 98.0692C87.7651 99.6927 97.3265 98.3842 105.835 94.3254L122.929 86.1717C131.386 82.1374 140.885 80.8197 150.122 82.3996L168.172 85.4871C177.519 87.086 187.132 85.717 195.661 81.5724L211.936 73.6638C220.516 69.4945 230.192 68.1346 239.589 69.7775L257.323 72.8778C266.72 74.5207 276.396 73.1608 284.976 68.9915L301.169 61.123C309.749 56.9536 319.425 55.5938 328.822 57.2366L361.011 62.864" stroke="#D66C14" stroke-width="1.22667"/>
<path d="M0.124822 111.619L29.6003 97.4291C38.1445 93.3159 47.7625 91.9821 57.1036 93.6152L74.5239 96.6607C83.8103 98.2842 93.3717 96.9757 101.881 92.9169L118.974 84.7632C127.432 80.7289 136.931 79.4112 146.167 80.9911L164.217 84.0786C173.564 85.6775 183.177 84.3085 191.706 80.164L207.981 72.2553C216.561 68.086 226.237 66.7261 235.634 68.369L253.368 71.4694C262.765 73.1122 272.441 71.7523 281.021 67.583L297.214 59.7145C305.794 55.5451 315.47 54.1853 324.867 55.8281L357.056 61.4555" stroke="#D66C14" stroke-width="0.613333"/>
<path opacity="0.5" d="M-16.9358 82.5355L14.3174 67.8347C22.6448 63.9177 31.9661 62.6246 41.0453 64.127L60.717 67.3821C69.7429 68.8757 79.0094 67.6067 87.3015 63.7416L106.539 54.7744C114.781 50.9326 123.987 49.6552 132.964 51.1076L153.283 54.3953C162.367 55.8652 171.684 54.5389 179.997 50.5922L198.401 41.8551C206.764 37.8847 216.142 36.5668 225.275 38.0781L245.287 41.3895C254.421 42.9009 263.798 41.5829 272.161 37.6125L290.485 28.9135C298.848 24.9431 308.225 23.6252 317.359 25.1366L351.4 30.7693" stroke="#D66C14" stroke-width="1.22667"/>
<path d="M-11.372 79.2687L19.8812 64.568C28.2086 60.651 37.5299 59.3579 46.6091 60.8602L66.2808 64.1154C75.3067 65.6089 84.5732 64.3399 92.8653 60.4748L112.103 51.5076C120.345 47.6658 129.551 46.3884 138.528 47.8409L158.846 51.1286C167.931 52.5985 177.248 51.2722 185.561 47.3255L203.965 38.5883C212.328 34.6179 221.705 33.3 230.839 34.8114L250.851 38.1227C259.984 39.6341 269.362 38.3162 277.725 34.3458L296.049 25.6468C304.412 21.6764 313.789 20.3585 322.923 21.8698L356.963 27.5026" stroke="#D66C14" stroke-width="0.613333"/>
<path opacity="0.7" d="M-10.9022 68.4694L20.351 53.7686C28.6784 49.8516 37.9998 48.5585 47.0789 50.0609L66.7506 53.316C75.7765 54.8095 85.0431 53.5406 93.3351 49.6755L112.573 40.7082C120.815 36.8665 130.021 35.589 138.998 37.0415L159.316 40.3292C168.401 41.7991 177.717 40.4728 186.031 36.5261L204.435 27.7889C212.798 23.8185 222.175 22.5006 231.309 24.012L251.32 27.3234C260.454 28.8347 269.832 27.5168 278.195 23.5464L296.518 14.8474C304.882 10.877 314.259 9.55908 323.393 11.0705L357.433 16.7032" stroke="#D66C14" stroke-width="0.613333"/>
<path opacity="0.8" d="M-17.1372 87.1638L14.116 72.463C22.4433 68.546 31.7647 67.2529 40.8439 68.7553L60.5156 72.0104C69.5415 73.504 78.808 72.235 87.1001 68.3699L106.338 59.4027C114.58 55.5609 123.786 54.2835 132.763 55.7359L153.081 59.0236C162.166 60.4935 171.482 59.1672 179.796 55.2205L198.2 46.4834C206.563 42.513 215.94 41.1951 225.074 42.7064L245.085 46.0178C254.219 47.5292 263.597 46.2112 271.96 42.2408L290.283 33.5418C298.647 29.5714 308.024 28.2535 317.158 29.7649L351.198 35.3976" stroke="#D66C14" stroke-width="2.45333"/>
<path opacity="0.7" d="M-15.4552 94.6563L15.798 79.9555C24.1254 76.0385 33.4467 74.7454 42.5259 76.2478L62.1976 79.5029C71.2235 80.9964 80.49 79.7274 88.7821 75.8623L108.02 66.8951C116.262 63.0534 125.468 61.7759 134.445 63.2284L154.763 66.5161C163.848 67.986 173.164 66.6597 181.478 62.713L199.882 53.9758C208.245 50.0054 217.622 48.6875 226.756 50.1989L246.767 53.5102C255.901 55.0216 265.279 53.7037 273.642 49.7333L291.965 41.0343C300.329 37.0639 309.706 35.746 318.84 37.2574L352.88 42.8901" stroke="#D66C14" stroke-width="1.22667"/>
<path opacity="0.7" d="M-23.8849 92.7442L7.36826 78.0434C15.6956 74.1264 25.017 72.8333 34.0961 74.3357L53.7679 77.5908C62.7938 79.0843 72.0603 77.8154 80.3523 73.9503L99.5903 64.983C107.832 61.1413 117.038 59.8638 126.015 61.3163L146.333 64.604C155.418 66.0739 164.735 64.7476 173.048 60.8009L191.452 52.0637C199.815 48.0933 209.193 46.7754 218.326 48.2868L238.338 51.5982C247.471 53.1095 256.849 51.7916 265.212 47.8212L283.536 39.1222C291.899 35.1518 301.276 33.8339 310.41 35.3453L344.45 40.978" stroke="#D66C14" stroke-width="1.22667"/>
<path d="M-22.5782 85.7221L8.67506 71.0214C17.0024 67.1044 26.3238 65.8113 35.4029 67.3136L55.0747 70.5688C64.1006 72.0623 73.3671 70.7933 81.6591 66.9282L100.897 57.961C109.139 54.1192 118.345 52.8418 127.322 54.2943L147.64 57.582C156.725 59.0519 166.041 57.7256 174.355 53.7789L192.759 45.0417C201.122 41.0713 210.499 39.7534 219.633 41.2648L239.645 44.5761C248.778 46.0875 258.156 44.7696 266.519 40.7992L284.842 32.1002C293.206 28.1298 302.583 26.8119 311.717 28.3232L345.757 33.956" stroke="#D66C14" stroke-width="0.613333"/>
<path opacity="0.7" d="M132.443 105.981C132.938 107.839 127.191 111.703 121.01 113.546C114.829 115.39 109.218 116.437 108.722 114.579C108.226 112.721 113.033 108.661 119.214 106.818C125.396 104.974 131.947 104.123 132.443 105.981Z" fill="#D66C14"/>
<path opacity="0.6" d="M129.828 106.658C130.212 108.098 125.601 111.361 120.808 112.79C116.016 114.22 111.244 115.255 110.859 113.814C110.475 112.374 114.624 109.003 119.416 107.574C124.208 106.144 129.444 105.217 129.828 106.658Z" fill="#F8B375"/>
<path d="M121.137 66.0189C121.45 67.4766 119.244 69.8798 116.805 70.4781C114.365 71.0764 111.906 71.2963 111.593 69.8385C111.281 68.3808 113.232 65.7973 115.672 65.199C118.111 64.6007 120.824 64.5611 121.137 66.0189Z" fill="#F8B375"/>
<path opacity="0.6" d="M119.43 66.6575C119.632 67.5965 118.211 69.1444 116.64 69.5298C115.068 69.9152 113.484 70.0569 113.283 69.1179C113.081 68.1789 114.338 66.5148 115.91 66.1295C117.481 65.7441 119.229 65.7185 119.43 66.6575Z" fill="#BA6824"/>
<path opacity="0.5" d="M128.103 107.055C128.345 107.963 124.484 110.652 120.86 111.733C117.236 112.814 113.25 114.033 113.008 113.125C112.766 112.217 116.359 109.527 119.983 108.447C123.607 107.366 127.861 106.148 128.103 107.055Z" fill="#D66C14"/>
<path opacity="0.6" d="M125.928 108.107C126.1 108.751 123.302 110.489 120.732 111.255C118.162 112.022 115.805 112.615 115.633 111.972C115.461 111.328 117.541 109.691 120.11 108.925C122.68 108.158 125.757 107.464 125.928 108.107Z" fill="#91470A"/>
<path opacity="0.6" d="M90.1582 95.0435C90.1159 95.7082 86.9099 96.4643 84.2298 96.372C81.5497 96.2796 79.1255 96.0912 79.1677 95.4265C79.21 94.7618 81.7027 93.8726 84.3828 93.9649C87.0629 94.0572 90.2004 94.3788 90.1582 95.0435Z" fill="#91470A"/>
<path d="M84.701 119.927C84.8002 120.586 82.9959 121.791 81.3516 122.088C79.7073 122.385 78.2002 122.55 78.101 121.892C78.0018 121.233 79.3481 120 80.9924 119.703C82.6367 119.406 84.6018 119.269 84.701 119.927Z" fill="#CE7422"/>
<path opacity="0.5" d="M87.7448 61.7414C87.6072 61.0514 85.2682 60.7198 82.5715 61.2575C79.8749 61.7951 77.2419 63.1723 77.3794 63.8622C77.517 64.5522 80.4145 64.5019 83.1112 63.9642C85.8078 63.4265 87.8824 62.4313 87.7448 61.7414Z" fill="#D66C14"/>
<path opacity="0.4" d="M98.4757 56.8982C98.1596 56.2697 97.0287 55.9624 96.0675 56.4458C95.1062 56.9292 94.4848 58.1771 94.8009 58.8056C95.117 59.4341 96.3462 59.3949 97.3074 58.9115C98.2687 58.4281 98.7918 57.5267 98.4757 56.8982Z" fill="#D66C14"/>
<path opacity="0.3" d="M72.7285 67.2541C72.6306 66.5574 72.0418 65.8498 71.4498 65.933C70.8579 66.0162 70.3603 66.93 70.4582 67.6267C70.5562 68.3234 71.242 68.7493 71.8339 68.6661C72.4259 68.583 72.8264 67.9507 72.7285 67.2541Z" fill="#D66C14"/>
<path opacity="0.3" d="M61.6966 66.9821C61.6368 66.5564 61.2823 66.1232 60.9271 66.1732C60.572 66.2231 60.2747 66.7806 60.3346 67.2063C60.3944 67.6321 60.8067 67.8933 61.1619 67.8434C61.517 67.7935 61.7564 67.4079 61.6966 66.9821Z" fill="#D66C14"/>
</g>
<g filter="url(#filter2_f_15_4652)">
<path d="M77.7988 30.4096V30.4096C45.7831 76.0442 78.2419 138.85 133.986 139.128L151.859 139.218L-5.72642 144.049L77.7988 30.4096Z" fill="url(#paint1_linear_15_4652)" fill-opacity="0.4"/>
</g>
<g opacity="0.2" filter="url(#filter3_f_15_4652)">
<path d="M107.961 153.026V153.026C142.736 109.457 114.221 44.7662 58.5998 41.043L40.7665 39.8492L198.35 44.7657L107.961 153.026Z" fill="#FFEAB3"/>
</g>
</g>
</g>
<defs>
<filter id="filter0_d_15_4652" x="27.779" y="27.779" width="128.442" height="128.442" filterUnits="userSpaceOnUse" color-interpolation-filters="sRGB">
<feFlood flood-opacity="0" result="BackgroundImageFix"/>
<feColorMatrix in="SourceAlpha" type="matrix" values="0 0 0 0 0 0 0 0 0 0 0 0 0 0 0 0 0 0 127 0" result="hardAlpha"/>
<feOffset/>
<feGaussianBlur stdDeviation="6.13333"/>
<feComposite in2="hardAlpha" operator="out"/>
<feColorMatrix type="matrix" values="0 0 0 0 0.404167 0 0 0 0 0.156468 0 0 0 0 0.0690452 0 0 0 0.8 0"/>
<feBlend mode="normal" in2="BackgroundImageFix" result="effect1_dropShadow_15_4652"/>
<feBlend mode="normal" in="SourceGraphic" in2="effect1_dropShadow_15_4652" result="shape"/>
</filter>
<filter id="filter1_f_15_4652" x="-24.9127" y="9.38819" width="412.301" height="145.626" filterUnits="userSpaceOnUse" color-interpolation-filters="sRGB">
<feFlood flood-opacity="0" result="BackgroundImageFix"/>
<feBlend mode="normal" in="SourceGraphic" in2="BackgroundImageFix" result="shape"/>
<feGaussianBlur stdDeviation="0.383333" result="effect1_foregroundBlur_15_4652"/>
</filter>
<filter id="filter2_f_15_4652" x="-11.8597" y="24.2762" width="169.853" height="125.906" filterUnits="userSpaceOnUse" color-interpolation-filters="sRGB">
<feFlood flood-opacity="0" result="BackgroundImageFix"/>
<feBlend mode="normal" in="SourceGraphic" in2="BackgroundImageFix" result="shape"/>
<feGaussianBlur stdDeviation="3.06667" result="effect1_foregroundBlur_15_4652"/>
</filter>
<filter id="filter3_f_15_4652" x="33.0998" y="32.1825" width="172.917" height="128.511" filterUnits="userSpaceOnUse" color-interpolation-filters="sRGB">
<feFlood flood-opacity="0" result="BackgroundImageFix"/>
<feBlend mode="normal" in="SourceGraphic" in2="BackgroundImageFix" result="shape"/>
<feGaussianBlur stdDeviation="3.83333" result="effect1_foregroundBlur_15_4652"/>
</filter>
<linearGradient id="paint0_linear_15_4652" x1="130.129" y1="85.663" x2="40.0457" y2="100.46" gradientUnits="userSpaceOnUse">
<stop stop-color="#F4E8D5"/>
<stop offset="1" stop-color="#FC7100"/>
</linearGradient>
<linearGradient id="paint1_linear_15_4652" x1="39.7983" y1="118.846" x2="82.7233" y2="102.81" gradientUnits="userSpaceOnUse">
<stop stop-color="#511D04"/>
<stop offset="1" stop-color="#CD7121"/>
</linearGradient>
<clipPath id="clip0_15_4652">
<rect x="40.0457" y="52.8496" width="92" height="92" rx="46" transform="rotate(-8 40.0457 52.8496)" fill="white"/>
</clipPath>
</defs>
</svg>
