<svg width="142" height="147" viewBox="0 0 142 147" fill="none" xmlns="http://www.w3.org/2000/svg">
<g filter="url(#filter0_d_15_4653)">
<g clip-path="url(#clip0_15_4653)">
<rect x="-15.9915" y="100.595" width="85.0325" height="85.0325" rx="42.5163" transform="rotate(-60 -15.9915 100.595)" fill="url(#paint0_linear_15_4653)"/>
<g filter="url(#filter1_f_15_4653)">
<path opacity="0.7" d="M-28.1439 143.327L-25.6724 136.767C-21.6009 125.962 -16.0476 115.774 -9.17163 106.497L-6.07661 102.322C-1.25404 95.8153 2.6409 88.6702 5.49648 81.0915V81.0915C8.35206 73.5128 12.247 66.3677 17.0696 59.8613L23.2596 51.5099C28.0822 45.0034 31.9771 37.8584 34.8327 30.2797V30.2797C37.6883 22.701 41.5832 15.5559 46.4058 9.04946L55.6909 -3.47767C58.46 -7.21375 60.6966 -11.3165 62.3363 -15.6683V-15.6683C66.4077 -26.4739 71.9611 -36.6613 78.837 -45.9381L81.9321 -50.1138C86.7546 -56.6202 90.6496 -63.7653 93.5052 -71.344C96.3607 -78.9227 100.256 -86.0678 105.078 -92.5742L111.268 -100.926C116.091 -107.432 119.986 -114.577 122.841 -122.156C125.697 -129.735 129.592 -136.88 134.414 -143.386L147.873 -161.544" stroke="#5D2FE4" stroke-width="1.13377"/>
<path opacity="0.7" d="M-23.2345 146.161L-20.763 139.602C-16.6916 128.796 -11.1382 118.609 -4.26227 109.332L-1.16724 105.156C3.65532 98.6497 7.55026 91.5046 10.4058 83.9259V83.9259C13.2614 76.3472 17.1564 69.2022 21.9789 62.6957L28.169 54.3443C32.9915 47.8378 36.8865 40.6928 39.7421 33.1141V33.1141C42.5976 25.5354 46.4926 18.3903 51.3152 11.8839L60.6002 -0.643255C63.3694 -4.37933 65.6059 -8.48212 67.2456 -12.8339V-12.8339C71.3171 -23.6395 76.8705 -33.8269 83.7464 -43.1037L86.8414 -47.2794C91.664 -53.7858 95.5589 -60.9309 98.4145 -68.5096C101.27 -76.0883 105.165 -83.2334 109.988 -89.7398L116.178 -98.0912C121 -104.598 124.895 -111.743 127.751 -119.321C130.606 -126.9 134.501 -134.045 139.324 -140.552L152.783 -158.71" stroke="#120827" stroke-width="2.26753"/>
<path opacity="0.7" d="M4.99423 162.459L7.46572 155.9C11.5372 145.094 17.0905 134.907 23.9665 125.63L27.0615 121.454C31.8841 114.948 35.779 107.803 38.6346 100.224V100.224C41.4902 92.6451 45.3851 85.5001 50.2077 78.9936L56.3977 70.6422C61.2203 64.1358 65.1152 56.9907 67.9708 49.412V49.412C70.8264 41.8333 74.7214 34.6882 79.5439 28.1818L88.829 15.6547C91.5982 11.9186 93.8347 7.8158 95.4744 3.46402V3.46402C99.5458 -7.34159 105.099 -17.5289 111.975 -26.8057L115.07 -30.9815C119.893 -37.4879 123.788 -44.633 126.643 -52.2117C129.499 -59.7904 133.394 -66.9354 138.216 -73.4419L144.406 -81.7933C149.229 -88.2997 153.124 -95.4448 155.98 -103.024C158.835 -110.602 162.73 -117.747 167.553 -124.254L181.012 -142.412" stroke="#B098E4" stroke-width="4.53507"/>
<path opacity="0.7" d="M-5.19266 156.577L-2.72117 150.018C1.35028 139.212 6.90365 129.025 13.7796 119.748L16.8746 115.573C21.6972 109.066 25.5921 101.921 28.4477 94.3424V94.3424C31.3033 86.7637 35.1982 79.6187 40.0208 73.1122L46.2109 64.7608C51.0334 58.2543 54.9284 51.1093 57.7839 43.5306V43.5306C60.6395 35.9519 64.5345 28.8068 69.357 22.3004L78.6421 9.77325C81.4113 6.03717 83.6478 1.93439 85.2875 -2.41739V-2.41739C89.359 -13.223 94.9123 -23.4104 101.788 -32.6872L104.883 -36.8629C109.706 -43.3693 113.601 -50.5144 116.456 -58.0931C119.312 -65.6718 123.207 -72.8169 128.029 -79.3233L134.22 -87.6747C139.042 -94.1811 142.937 -101.326 145.793 -108.905C148.648 -116.484 152.543 -123.629 157.366 -130.135L170.825 -148.294" stroke="#331E6F" stroke-width="5.95228"/>
<path opacity="0.7" d="M25.859 174.505L28.3305 167.946C32.4019 157.14 37.9553 146.953 44.8312 137.676L47.9263 133.5C52.7488 126.994 56.6438 119.849 59.4993 112.27V112.27C62.3549 104.691 66.2499 97.5463 71.0724 91.0399L77.2625 82.6885C82.085 76.182 85.98 69.037 88.8356 61.4583V61.4583C91.6912 53.8796 95.5861 46.7345 100.409 40.228L109.694 27.7009C112.463 23.9648 114.699 19.8621 116.339 15.5103V15.5103C120.411 4.70468 125.964 -5.48268 132.84 -14.7595L135.935 -18.9352C140.757 -25.4416 144.652 -32.5867 147.508 -40.1654C150.364 -47.7441 154.259 -54.8892 159.081 -61.3956L165.271 -69.747C170.094 -76.2535 173.989 -83.3986 176.844 -90.9772C179.7 -98.5559 183.595 -105.701 188.417 -112.207L201.876 -130.366" stroke="#6C44DD" stroke-width="1.13377"/>
<path opacity="0.7" d="M31.9957 178.048L34.4672 171.489C38.5386 160.683 44.092 150.496 50.968 141.219L54.063 137.043C58.8855 130.537 62.7805 123.392 65.6361 115.813V115.813C68.4916 108.234 72.3866 101.089 77.2092 94.5829L83.3992 86.2315C88.2218 79.725 92.1167 72.58 94.9723 65.0013V65.0013C97.8279 57.4226 101.723 50.2775 106.545 43.7711L115.83 31.244C118.6 27.5079 120.836 23.4051 122.476 19.0533V19.0533C126.547 8.24771 132.101 -1.93965 138.977 -11.2165L142.072 -15.3922C146.894 -21.8986 150.789 -29.0437 153.645 -36.6224C156.5 -44.2011 160.395 -51.3462 165.218 -57.8526L171.408 -66.204C176.23 -72.7104 180.125 -79.8555 182.981 -87.4342C185.837 -95.0129 189.731 -102.158 194.554 -108.664L208.013 -126.823" stroke="#180F37" stroke-width="2.26753"/>
<path opacity="0.7" d="M20.9497 171.671L23.4212 165.111C27.4926 154.306 33.046 144.118 39.9219 134.842L43.017 130.666C47.8395 124.159 51.7345 117.014 54.59 109.436V109.436C57.4456 101.857 61.3406 94.7119 66.1631 88.2055L72.3532 79.8541C77.1757 73.3476 81.0707 66.2025 83.9263 58.6238V58.6238C86.7819 51.0452 90.6768 43.9001 95.4994 37.3936L104.784 24.8665C107.554 21.1304 109.79 17.0276 111.43 12.6759V12.6759C115.501 1.87027 121.055 -8.31709 127.931 -17.5939L131.026 -21.7696C135.848 -28.276 139.743 -35.4211 142.599 -42.9998C145.454 -50.5785 149.349 -57.7236 154.172 -64.23L160.362 -72.5814C165.184 -79.0879 169.079 -86.233 171.935 -93.8117C174.791 -101.39 178.685 -108.535 183.508 -115.042L196.967 -133.2" stroke="#401F9E" stroke-width="2.26753"/>
</g>
<g filter="url(#filter2_f_15_4653)">
<path d="M-10.8524 60.3285V60.3285C4.16668 109.614 68.3801 121.712 100.304 81.2702L110.539 68.3035L24.3862 185.828L-10.8524 60.3285Z" fill="url(#paint1_linear_15_4653)" fill-opacity="0.4"/>
</g>
<g opacity="0.2" filter="url(#filter3_f_15_4653)">
<path d="M95.6169 108.134V108.134C83.6723 58.0137 20.3293 41.9708 -14.0326 80.3625L-25.0499 92.6719L68.2014 -19.3034L95.6169 108.134Z" fill="#DDCDFF"/>
</g>
</g>
</g>
<g opacity="0.8" filter="url(#filter4_f_15_4653)">
<path d="M60.0217 45.6745C73.6942 23.7597 82.5115 11.4722 84.2393 12.4697C86.7429 13.9152 70.3491 46.9972 47.6227 86.3604C24.8964 125.724 4.44341 156.462 1.9398 155.017C0.212026 154.019 5.1632 142.459 17.3057 119.661" stroke="url(#paint2_linear_15_4653)" stroke-width="2.26753"/>
</g>
<g opacity="0.8" filter="url(#filter5_f_15_4653)">
<path d="M61.5926 46.8281C73.7682 26.8082 78.6843 19.2919 79.7297 19.8954C81.2445 20.77 65.7544 50.4355 45.1315 86.1553C24.5087 121.875 6.56265 150.123 5.04786 149.248C4.00249 148.645 7.73341 141.184 18.9834 120.629" stroke="url(#paint3_linear_15_4653)" stroke-width="1.70065"/>
</g>
<defs>
<filter id="filter0_d_15_4653" x="-27.3291" y="15.6165" width="138.832" height="138.832" filterUnits="userSpaceOnUse" color-interpolation-filters="sRGB">
<feFlood flood-opacity="0" result="BackgroundImageFix"/>
<feColorMatrix in="SourceAlpha" type="matrix" values="0 0 0 0 0 0 0 0 0 0 0 0 0 0 0 0 0 0 127 0" result="hardAlpha"/>
<feOffset/>
<feGaussianBlur stdDeviation="5.66884"/>
<feComposite in2="hardAlpha" operator="out"/>
<feColorMatrix type="matrix" values="0 0 0 0 0.124624 0 0 0 0 0.0614583 0 0 0 0 0.245833 0 0 0 1 0"/>
<feBlend mode="normal" in2="BackgroundImageFix" result="effect1_dropShadow_15_4653"/>
<feBlend mode="normal" in="SourceGraphic" in2="effect1_dropShadow_15_4653" result="shape"/>
</filter>
<filter id="filter1_f_15_4653" x="-30.9419" y="-164.15" width="242.133" height="344.865" filterUnits="userSpaceOnUse" color-interpolation-filters="sRGB">
<feFlood flood-opacity="0" result="BackgroundImageFix"/>
<feBlend mode="normal" in="SourceGraphic" in2="BackgroundImageFix" result="shape"/>
<feGaussianBlur stdDeviation="1.13377" result="effect1_foregroundBlur_15_4653"/>
</filter>
<filter id="filter2_f_15_4653" x="-16.5213" y="54.6597" width="132.729" height="136.837" filterUnits="userSpaceOnUse" color-interpolation-filters="sRGB">
<feFlood flood-opacity="0" result="BackgroundImageFix"/>
<feBlend mode="normal" in="SourceGraphic" in2="BackgroundImageFix" result="shape"/>
<feGaussianBlur stdDeviation="2.83442" result="effect1_foregroundBlur_15_4653"/>
</filter>
<filter id="filter3_f_15_4653" x="-32.136" y="-26.3895" width="134.839" height="141.609" filterUnits="userSpaceOnUse" color-interpolation-filters="sRGB">
<feFlood flood-opacity="0" result="BackgroundImageFix"/>
<feBlend mode="normal" in="SourceGraphic" in2="BackgroundImageFix" result="shape"/>
<feGaussianBlur stdDeviation="3.54302" result="effect1_foregroundBlur_15_4653"/>
</filter>
<filter id="filter4_f_15_4653" x="-0.945285" y="9.86261" width="87.9881" height="147.755" filterUnits="userSpaceOnUse" color-interpolation-filters="sRGB">
<feFlood flood-opacity="0" result="BackgroundImageFix"/>
<feBlend mode="normal" in="SourceGraphic" in2="BackgroundImageFix" result="shape"/>
<feGaussianBlur stdDeviation="0.708604" result="effect1_foregroundBlur_15_4653"/>
</filter>
<filter id="filter5_f_15_4653" x="2.61245" y="17.5946" width="79.487" height="133.941" filterUnits="userSpaceOnUse" color-interpolation-filters="sRGB">
<feFlood flood-opacity="0" result="BackgroundImageFix"/>
<feBlend mode="normal" in="SourceGraphic" in2="BackgroundImageFix" result="shape"/>
<feGaussianBlur stdDeviation="0.708604" result="effect1_foregroundBlur_15_4653"/>
</filter>
<linearGradient id="paint0_linear_15_4653" x1="62.3801" y1="122.632" x2="-15.9915" y2="150.976" gradientUnits="userSpaceOnUse">
<stop stop-color="#B68AFF"/>
<stop offset="1" stop-color="#3E16B6"/>
</linearGradient>
<linearGradient id="paint1_linear_15_4653" x1="31.9353" y1="138.329" x2="44.6814" y2="97.9403" gradientUnits="userSpaceOnUse">
<stop stop-color="#281E3C"/>
<stop offset="1" stop-color="#6B47B4"/>
</linearGradient>
<linearGradient id="paint2_linear_15_4653" x1="39.3045" y1="81.5579" x2="47.6227" y2="86.3604" gradientUnits="userSpaceOnUse">
<stop stop-color="#311D64"/>
<stop offset="1" stop-color="#DCCBFF"/>
</linearGradient>
<linearGradient id="paint3_linear_15_4653" x1="40.4481" y1="83.4513" x2="45.1315" y2="86.1553" gradientUnits="userSpaceOnUse">
<stop stop-color="#9747FF"/>
<stop offset="1" stop-color="#A77FF2"/>
</linearGradient>
<clipPath id="clip0_15_4653">
<rect x="-15.9915" y="100.595" width="85.0325" height="85.0325" rx="42.5163" transform="rotate(-60 -15.9915 100.595)" fill="white"/>
</clipPath>
</defs>
</svg>
